<svg width="250" height="250" viewBox="0 0 250 250" fill="none" xmlns="http://www.w3.org/2000/svg">
<rect width="250" height="250" rx="48" fill="black"/>
<path d="M193.198 124.49L171.705 102.952L182.446 81.4214L217.367 116.416C221.817 120.875 221.817 128.105 217.367 132.564L174.385 175.636C169.936 180.095 162.722 180.095 158.272 175.636C153.822 171.177 153.822 163.948 158.272 159.489L193.198 124.49Z" fill="#A9AAAB"/>
<path d="M158.277 73.3544C162.726 68.8956 169.942 68.8975 174.392 73.3563L182.45 81.4316L88.4325 175.646C83.9831 180.105 76.7671 180.103 72.3176 175.644L64.2591 167.569L158.277 73.3544ZM117.982 102.966L101.865 119.117L80.3723 97.5786L53.507 124.5L75 146.038L64.2591 167.569L29.3372 132.574C24.8876 128.115 24.8876 120.886 29.3372 116.427L72.3176 73.3563C76.7671 68.8975 83.9831 68.8956 88.4325 73.3544L117.982 102.966Z" fill="white"/>
</svg>
