<svg width="250" height="250" viewBox="0 0 250 250" fill="none" xmlns="http://www.w3.org/2000/svg">
<rect width="250" height="250" rx="40" fill="url(#paint0_linear_1_2)"/>
<g clip-path="url(#clip0_1_2)">
<path d="M210.344 128.878L210.343 128.879L209.389 128.88C209.154 128.88 208.934 128.951 208.722 129.167C208.458 129.436 208.418 129.781 208.482 130.118C209.256 134.24 209.654 138.263 209.784 142.059H197.809C197.539 142.059 197.315 142.154 197.136 142.331C196.947 142.517 196.831 142.754 196.831 143.143L196.832 146.574C196.833 147.256 197.304 147.638 197.872 147.638H209.781C209.692 150.259 209.486 152.723 209.206 154.928C208.991 156.617 208.737 158.199 208.467 159.638C208.416 160.049 208.525 160.309 208.724 160.529C208.962 160.767 209.239 160.824 209.567 160.824L210.755 160.822L212.602 160.824C213.074 160.824 213.422 160.607 213.631 160.393C213.939 160.077 213.992 159.739 214.026 159.545C214.267 158.138 214.499 156.597 214.691 154.957C214.952 152.743 215.141 150.27 215.224 147.638H226.959C227.528 147.638 227.999 147.256 227.999 146.574L228 143.143C228 142.754 227.884 142.517 227.696 142.331C227.517 142.154 227.293 142.059 227.022 142.059H215.227C215.155 139.79 214.995 137.442 214.722 135.037C214.538 133.418 214.305 131.773 214.017 130.114C213.958 129.777 213.842 129.441 213.494 129.171C213.264 128.993 212.945 128.88 212.729 128.88L211.117 128.879C211.115 128.879 211.113 128.878 211.111 128.878L210.789 128.879L210.344 128.878Z" fill="white"/>
<path d="M131.175 68C123.403 68 115.803 68.952 108.475 70.7872C102.342 72.3229 96.476 74.4776 90.9208 77.2061C88.8643 78.2163 86.9266 79.2725 85.0852 80.3647C81.4968 82.4929 78.2287 84.7639 75.1661 87.2353C72.7946 89.149 70.6514 91.091 68.7995 92.923C67.5638 94.1455 66.4231 95.3346 65.2256 96.671C65.1168 96.7925 65.0148 96.9045 64.9087 97.0231C64.7204 97.2334 64.4942 97.558 64.6059 98.0038C64.6418 98.1471 64.7214 98.2783 64.8328 98.3844C65.0389 98.5651 65.278 98.6081 65.4937 98.5916C65.7493 98.5721 66.0375 98.4212 66.1987 98.3002C66.3069 98.2191 66.4107 98.125 66.51 98.0233C66.8777 97.647 67.2149 97.2762 67.57 96.9089C68.2064 96.2506 68.8559 95.6036 69.525 94.9567C72.0537 92.5121 75.2123 89.8456 78.6581 87.4048C80.5236 86.0834 82.4837 84.8015 84.6162 83.551C86.3666 82.5246 89.6664 80.6811 93.8336 78.8908C97.526 77.3044 101.11 76.0736 104.479 75.1194C106.911 74.4303 109.427 73.8283 111.967 73.3416C114.221 72.9098 116.502 72.5627 118.796 72.2959C122.32 71.8859 125.836 71.6935 129.353 71.6935C137.511 71.6935 145.843 72.7897 153.846 75.0256C156.738 75.8335 159.554 76.7775 162.3 77.8585C165.863 79.2609 169.141 80.8016 172.641 82.7602C179.091 86.3693 184.838 90.7559 190.015 95.9715C192.53 98.5053 194.705 101.058 196.584 103.553C198.928 106.667 200.812 109.69 202.313 112.449C203.271 114.211 204.072 115.868 204.723 117.32C206.096 120.381 206.914 122.883 206.914 122.883C207.001 123.12 207.065 123.22 207.168 123.375C207.417 123.707 207.816 123.901 208.222 123.901L211.556 123.9C211.808 123.9 211.922 123.849 212.059 123.77C212.184 123.697 212.358 123.53 212.436 123.35C212.527 123.139 212.552 122.855 212.469 122.596C211.269 119.016 209.63 115.257 207.69 111.644C204.666 106.015 200.08 99.1275 193.394 92.5758C187.49 86.7899 181.54 82.716 176.57 79.8703C170.394 76.3334 163.841 73.5787 156.892 71.5923C148.522 69.1993 139.831 68 131.175 68Z" fill="white"/>
<path d="M115.874 144.475C115.989 144.491 116.016 144.496 116.126 144.506C117.413 144.682 118.414 144.863 119.316 145.092C120.356 145.358 121.24 145.683 121.887 146.042C122.376 146.313 122.762 146.604 123.08 146.924C123.262 147.106 123.427 147.311 123.574 147.522C123.798 147.842 124.11 148.419 124.269 148.782C124.401 149.085 124.482 149.318 124.512 149.405C124.668 149.873 124.779 150.364 124.844 150.864C124.953 151.705 124.943 152.494 124.824 153.242C124.701 154.012 124.437 155.144 123.546 156.334C122.786 157.348 121.726 158.158 120.481 158.755C118.98 159.48 117.396 159.84 115.81 160.021C112.846 160.347 109.61 159.759 106.959 158.445C106.113 158.02 105.375 157.582 104.713 157.09C104.068 156.611 103.455 156.064 102.999 155.441C102.278 154.455 102.006 153.584 102.011 152.714C102.016 151.888 102.28 151.138 102.679 150.577C103.136 149.89 103.873 149.395 104.711 149.048C106.125 148.462 107.866 148.299 109.271 148.348C110.977 148.411 114.041 148.942 115.663 149.515C116.111 149.678 117.764 150.319 118.053 150.614C118.259 150.819 118.39 151.118 118.301 151.391C117.927 152.527 115.179 153.121 114.389 153.236C112.262 153.562 111.141 152.758 108.725 151.807C108.125 151.575 107.324 151.313 106.713 151.255C106.103 151.199 105.421 151.269 104.9 151.549C104.369 151.834 104.087 152.309 104.095 152.821C104.103 153.302 104.483 153.741 105.275 154.088C105.63 154.24 105.966 154.366 106.294 154.468C107.163 154.74 107.972 154.851 108.897 154.863C110.711 154.893 112.632 154.763 114.481 154.379C116.475 153.965 118.385 153.254 119.986 152.122C120.402 151.822 120.818 151.386 120.823 150.829C120.839 149.71 118.869 149.026 118.869 149.026C117.135 148.301 114.221 147.927 112.113 147.699C111.7 147.655 111.318 147.61 110.982 147.575C110.608 147.543 110.168 147.504 109.745 147.467C109.419 147.438 109.123 147.417 108.754 147.389C108.417 147.364 107.978 147.33 107.65 147.301C106.922 147.237 106.271 147.174 105.764 147.12C105.507 147.093 104.834 147.016 104.15 146.896C103.668 146.811 103.184 146.718 102.721 146.533C102.29 146.361 101.851 146.082 101.504 145.713C101.198 145.387 100.964 145.003 100.889 144.617C100.531 143.208 100.989 141.468 101.774 140.338C103.838 137.384 108.661 136.265 112.262 135.824C115.747 135.388 121.386 135.393 124.814 137.211C125.34 137.49 125.614 137.758 125.503 138.32C125.277 139.382 124.482 140.065 123.513 140.365C122.502 140.685 120.402 140.81 119.48 140.867C115.352 141.099 110.356 140.974 106.423 142.047C106.118 142.136 105.586 142.278 105.412 142.472C105.082 142.83 105.42 143.051 105.866 143.192C106.194 143.296 106.615 143.366 107.181 143.45L115.874 144.475Z" fill="white"/>
<path d="M146.32 155.638C145.551 157.441 143.518 159.37 141.001 158.171C138.51 156.973 134.545 148.874 134.545 148.874C134.545 148.874 133.039 145.852 132.755 145.931C132.755 145.931 132.428 145.342 132.228 148.643C132.023 151.927 132.27 158.334 130.954 159.343C129.711 160.352 128.205 159.953 127.42 158.77C126.714 157.604 126.42 154.839 126.804 149.983C127.262 145.116 128.394 139.939 129.843 138.326C131.285 136.728 132.444 137.889 132.897 138.31C132.897 138.31 134.829 140.06 138.021 145.195L138.579 146.146C138.579 146.146 141.475 150.997 141.781 150.987C141.781 150.987 142.018 151.207 142.228 151.045C142.534 150.96 142.407 149.405 142.407 149.405C142.407 149.405 141.807 144.117 139.169 135.167C139.169 135.167 138.768 134.053 139.037 133.007C139.306 131.95 140.364 132.444 140.364 132.444C140.364 132.444 144.461 134.499 146.452 141.158C148.426 147.817 147.099 153.825 146.32 155.638Z" fill="white"/>
<path d="M169.145 141.058C166.25 141.726 158.631 142.094 158.631 142.094L157.668 145.101C157.668 145.101 161.474 144.775 164.249 145.064C164.249 145.064 165.144 144.959 165.249 146.084C165.286 147.13 165.16 148.249 165.16 148.249C165.16 148.249 165.102 148.928 164.138 149.101C163.096 149.28 155.93 149.553 155.93 149.553L154.772 153.469C154.772 153.469 154.34 154.379 155.309 154.116C156.204 153.879 163.712 152.471 164.686 152.676C165.739 152.933 166.897 154.326 166.56 155.598C166.16 157.176 158.668 161.943 154.108 161.612C154.108 161.612 151.708 161.765 149.681 158.537C147.796 155.457 150.397 149.627 150.397 149.627C150.397 149.627 149.207 146.909 150.07 145.984C150.07 145.984 150.586 145.521 152.087 145.416L153.919 141.62C153.919 141.62 151.829 141.762 150.586 140.227C149.423 138.771 149.328 138.104 150.218 137.699C151.165 137.231 159.879 135.643 165.871 135.843C165.871 135.843 167.956 135.638 169.761 139.25C169.761 139.25 170.635 140.706 169.145 141.058Z" fill="white"/>
<path d="M188.846 143.1C188.846 143.1 188.818 142.879 188.709 142.657C188.481 142.188 187.895 141.716 186.466 143.321C184.66 145.313 181.396 149.055 178.769 154.138C181.528 153.827 184.187 152.335 184.987 151.573C185.757 150.89 187.133 149.518 188.03 147.649C188.525 146.619 188.879 145.437 188.902 144.136C188.908 143.798 188.887 143.453 188.846 143.1ZM190.294 151.657C188.43 154.906 183.165 161.701 176.173 160.098C175.313 162.176 174.505 164.264 173.772 166.503C172.535 170.283 171.505 174.492 170.807 179.807C170.807 179.807 170.565 181.452 169.196 180.879C168.121 180.505 166.495 179.014 165.642 176.867C165.417 176.301 165.252 175.708 165.159 175.059C165.037 174.044 165.053 172.836 165.211 171.501C165.495 169.103 166.219 166.234 167.343 163.052C168.117 160.863 169.081 158.526 170.224 156.093C169.139 154.327 168.397 151.804 169.028 148.214C169.028 148.214 169.335 146.022 170.862 143.017C171.999 140.782 173.813 138.097 176.675 135.532C176.675 135.532 177.48 134.837 177.943 135.052C178.459 135.268 178.226 137.435 177.816 138.491C177.395 139.542 174.404 144.709 174.404 144.709C174.404 144.709 172.54 148.193 173.067 150.942C174.704 148.433 177.304 144.737 180.12 141.844C182.55 139.348 185.141 137.448 187.404 137.427C188.72 137.415 190.025 138.052 190.914 139.684C191.636 141.011 191.979 142.792 191.979 144.651C191.979 147.1 191.389 149.713 190.294 151.657Z" fill="white"/>
<path d="M93.2731 131.771C93.2731 131.771 92.7402 132.729 92.614 132.907C92.5548 133.003 92.3608 133.269 92.1221 133.473C91.9374 133.63 91.7387 133.741 91.4743 133.765C91.2018 133.79 90.9251 133.689 90.6291 133.443C89.9183 132.812 89.5117 131.85 89.4801 130.904C89.4643 130.489 89.5319 130.031 89.4529 129.685C89.3837 129.375 89.1895 129.057 88.975 128.743C88.7815 128.46 88.5715 128.191 88.4217 127.924C88.2881 127.687 88.1795 127.45 88.0911 127.23C87.8104 126.533 87.7336 125.917 87.7056 125.349C87.5793 123.026 88.806 120.87 90.4013 119.183C92.0124 117.469 94.0932 116.062 96.3783 115.095C98.5422 114.186 101.726 113.566 104.101 114.386C104.875 114.654 105.949 115.311 106.491 115.994C106.607 116.141 106.702 116.293 106.818 116.367C106.923 116.435 107.197 116.462 107.418 116.504C108.176 116.635 109.266 117.208 109.714 117.586C110.603 118.359 111.093 119.095 111.319 120.162C111.533 121.163 111.359 122.3 110.955 123.313C110.526 124.386 109.849 125.368 109.124 126.106C106.707 128.576 104.317 130.316 101.221 131.525C100.234 131.91 98.9109 132.228 97.876 132.348C97.3307 132.411 96.8202 132.431 96.3276 132.411C95.7843 132.39 95.2433 132.318 94.7848 132.234C94.7848 132.234 93.6436 132.002 93.2731 131.771ZM98.4081 128.002C99.6409 127.883 100.716 127.664 101.708 127.35C102.246 127.181 102.785 126.963 103.309 126.711C104.454 126.161 105.623 125.358 106.365 124.686C106.759 124.33 107.1 123.965 107.37 123.604C107.91 122.886 108.23 122.076 108.129 121.223C108.045 120.508 107.576 119.967 106.981 119.715C105.666 119.143 104.181 119.822 103.106 120.443C102.332 120.891 101.162 121.754 100.071 122.682C98.7789 123.781 97.5487 125.027 96.7773 126.022C96.3398 126.618 95.8931 127.207 95.4865 127.824C95.5491 127.996 96.9872 128.076 97.7823 128.023M91.3024 126.072C91.7227 125.408 92.2128 124.758 92.6833 124.146C93.2048 123.467 94.1089 122.445 94.4631 122.071C95.251 121.238 96.0897 120.426 96.8102 119.809C97.242 119.447 97.7312 119.032 97.7312 119.032C97.7312 119.032 97.3859 119.038 96.9384 119.128C96.7216 119.17 96.3405 119.27 96.0303 119.384C95.6524 119.522 95.342 119.652 95.0679 119.79C94.2136 120.221 93.4708 120.804 93.1234 121.102C92.4786 121.655 91.7963 122.381 91.3637 123.167C91.1118 123.625 90.9387 124.11 90.9081 124.586C90.8869 124.916 90.9359 125.244 91.0649 125.565C91.1597 125.791 91.3024 126.072 91.3024 126.072Z" fill="white"/>
<path d="M96.0345 136.539C96.1293 136.554 96.2715 136.596 96.3978 136.644C97.4824 137.054 97.93 138.058 98.1985 139.161C98.8145 141.716 99.0777 147.371 99.183 149.583C99.2568 151.244 99.2989 152.879 99.3673 154.524C99.4252 155.911 99.5411 157.761 99.2515 159.065C99.1462 159.533 98.8303 160.079 98.3775 160.358C97.8668 160.689 96.6927 160.715 96.0451 160.578C94.4603 160.253 93.9443 159.233 93.7179 157.667C93.1756 153.925 93.4389 146.577 93.7548 143.481C93.8601 142.457 94.2444 139.177 94.7815 137.805C94.9657 137.337 95.3553 136.407 96.0345 136.539Z" fill="white"/>
<path d="M37.7332 109.559C36.4687 109.54 34.1846 109.555 31.5587 109.884C29.7539 110.111 27.8795 110.46 26.157 110.936C25.2032 111.194 24.4077 111.509 23.7173 111.959C22.929 112.473 22.2816 113.16 21.7624 114.07C21.278 114.922 20.8221 115.859 21.0695 116.805C21.2801 117.604 22.367 117.867 23.3488 118.033C24.2334 118.169 26.2392 118.273 26.771 117.627C26.9209 117.471 26.9884 117.03 26.7866 116.739C26.5866 116.386 26.0814 116.133 25.597 116.044C25.1882 115.969 24.5015 115.901 24.073 115.84C23.7778 115.798 23.6241 115.747 23.545 115.706C23.522 115.693 23.5053 115.682 23.4933 115.672C23.4712 115.653 23.4686 115.632 23.4686 115.632C23.4686 115.632 23.4762 115.612 23.4942 115.594C23.5174 115.571 23.5513 115.539 23.5856 115.514C23.9259 115.294 25.0197 114.985 25.2974 114.914C26.5485 114.568 28.4733 114.362 30.0454 114.281C31.5989 114.2 33.175 114.2 34.4633 114.248C39.6688 114.413 44.7147 115.25 49.7764 116.692C52.5197 117.473 55.319 118.446 58.283 119.607C62.4481 121.256 66.7246 123.511 70.6704 126.286C74.1677 128.746 77.2869 131.533 79.7058 134.614C81.1699 136.497 82.9238 139.335 83.7993 142.09C84.097 143.027 84.3509 144.101 84.3779 145.368C84.4042 146.596 84.2168 148.009 83.6862 149.4C82.6882 152.016 80.582 154.457 77.1119 156.267C75.8295 156.936 74.3592 157.523 72.6913 157.997C70.8917 158.508 69.0364 158.836 67.1898 159.036C65.0113 159.271 62.8358 159.321 60.6225 159.263C60.3117 159.254 59.656 159.216 58.9114 159.148C57.0145 158.976 55.2891 158.681 54.2981 158.495L53.9565 142.496C56.4411 142.534 59.1732 142.826 61.7506 143.274C63.1899 143.525 65.6188 144.011 68.6158 144.976C69.217 145.179 69.9336 145.614 69.9915 146.25C70.0148 146.52 69.9183 146.755 69.7478 146.984C69.2971 147.588 68.5572 148.039 67.9317 148.342C67.5551 148.524 67.2271 148.661 67.0773 148.83C66.9141 149.051 66.9014 149.366 67.1278 149.545C67.4378 149.79 67.9227 149.962 68.4152 150.074C70.8996 150.639 72.5553 149.527 73.518 148.47C74.5599 147.327 74.8579 146.44 74.9562 145.512C75.1249 143.919 74.3961 142.671 74.028 142.154C73.1137 140.869 71.7089 140.006 70.5761 139.465C68.009 138.238 65.079 137.607 63.5917 137.343C61.6994 137.007 59.2912 136.735 56.5091 136.679C55.2144 136.653 53.9123 136.716 53.9123 136.716C53.9123 136.716 53.8595 134.545 53.7647 133.105C53.6068 130.735 52.9489 126.083 50.7903 124.743C50.3954 124.501 49.9108 124.475 49.637 124.843C49.2158 125.39 48.8051 127.471 48.7104 128.007C48.6202 128.518 48.5267 129.161 48.4382 129.844C48.2993 130.918 48.1817 132.115 48.1033 133.084C48.0594 133.624 47.9392 135.384 47.9159 137.244C47.8896 137.27 47.8522 137.311 47.8154 137.338C47.8154 137.338 46.8445 137.484 45.6039 137.73C41.5237 138.54 38.6906 139.667 37.5802 140.153C35.5953 141.021 32.7477 142.553 31.8833 144.563C31.683 145.06 31.5987 145.372 31.575 145.879C31.5226 147 31.9358 147.986 32.2887 148.614C33.2249 150.378 35.0999 152.281 36.676 153.7C37.8133 154.724 39.4699 155.998 40.8027 156.907C41.8886 157.647 42.7087 158.17 43.4673 158.615C44.3518 159.135 45.2182 159.597 46.1016 160.017C46.58 160.244 47.1686 160.531 47.7101 160.788C47.7101 160.788 47.7907 161.546 47.8963 162.414C48.0035 163.343 48.0977 164.286 48.4685 165.155C48.6103 165.471 48.774 165.753 48.9976 166.003C49.6189 166.697 50.3183 166.842 50.6102 166.894C51.2036 167.002 51.7686 166.944 52.3642 166.832C52.6111 166.786 52.8643 166.699 53.06 166.598C53.388 166.428 53.642 166.172 53.8168 165.807C54.08 165.281 54.1746 164.443 54.1819 164.336C54.2145 163.854 54.1917 163.313 54.1917 163.313C54.1917 163.313 56.1067 163.767 57.444 164.009C59.6375 164.395 61.7435 164.624 64.2417 164.663C67.2562 164.709 70.4721 164.322 73.9165 163.492C75.9983 162.991 77.9787 162.327 79.9136 161.431C81.7083 160.599 83.313 159.608 84.705 158.461C85.7503 157.6 86.8404 156.516 87.8908 155.027C88.1896 154.604 88.454 154.194 88.6496 153.855C88.7097 153.751 88.8764 153.508 89.0973 153.135C89.7111 152.1 90.473 150.5 90.8704 148.463C90.9772 147.858 91.0543 147.264 91.0923 146.669C91.2388 144.068 90.7097 141.447 89.6901 139.055C89.4613 138.493 88.6449 136.503 86.89 133.981C85.359 131.781 83.5787 129.736 81.7163 127.88C80.4788 126.647 79.5394 125.784 77.9442 124.448C75.6849 122.577 73.53 121.171 72.8666 120.735C70.6759 119.302 68.14 117.895 65.9152 116.821C62.3294 115.091 58.8254 113.765 55.3352 112.686C54.1238 112.311 52.9984 111.994 51.9886 111.725C49.8954 111.17 46.7268 110.406 43.3684 109.976C41.3369 109.716 39.3807 109.582 37.7332 109.559ZM47.705 142.755C47.705 142.755 47.6522 145.12 47.6416 147.511C47.6302 149.981 47.6593 152.476 47.6883 154.234C47.7124 155.701 47.7363 156.655 47.7363 156.655C47.7363 156.655 46.0291 156.098 45.1461 155.658C43.5249 154.962 41.9816 154.149 40.5088 153.231C38.6455 152.069 37.0809 150.884 35.6201 149.575C35.3212 149.307 34.7939 148.8 34.5289 148.532C33.8597 147.87 33.1873 147.198 33.3469 146.297C33.4679 145.609 34.9439 144.956 35.5109 144.799C36.8601 144.415 38.2227 144.066 39.6656 143.772C41.1993 143.459 42.6831 143.218 43.7492 143.102C45.2196 142.877 47.705 142.755 47.705 142.755Z" fill="white"/>
</g>
<defs>
<linearGradient id="paint0_linear_1_2" x1="236" y1="14" x2="11.5" y2="236.5" gradientUnits="userSpaceOnUse">
<stop offset="0.265" stop-color="#03283C"/>
<stop offset="1" stop-color="#49B6C1"/>
</linearGradient>
<clipPath id="clip0_1_2">
<rect width="207" height="113" fill="white" transform="translate(21 68)"/>
</clipPath>
</defs>
</svg>
