<svg width="512" height="512" viewBox="0 0 512 512" fill="none" xmlns="http://www.w3.org/2000/svg">
<rect x="4" y="3" width="505" height="506" rx="102" fill="#101620"/>
<path d="M206.927 312.861C209.238 312.861 211.016 313.927 212.26 316.061C213.683 318.195 214.394 321.128 214.394 324.862C214.394 331.974 212.705 337.486 209.327 341.397C202.748 349.398 193.414 356.776 181.324 363.533C169.412 370.289 156.61 373.667 142.92 373.667C124.251 373.667 109.761 368.6 99.4485 358.466C89.1363 348.331 83.9802 334.463 83.9802 316.861C83.9802 304.593 86.5582 293.214 91.7144 282.724C96.8705 272.056 103.982 263.611 113.05 257.388C122.295 251.165 132.696 248.054 144.253 248.054C154.565 248.054 162.833 251.165 169.056 257.388C175.279 263.433 178.39 271.701 178.39 282.191C178.39 294.459 173.945 305.038 165.055 313.927C156.343 322.64 141.497 329.574 120.517 334.73C124.962 342.908 133.408 346.998 145.853 346.998C153.854 346.998 162.922 344.242 173.056 338.73C183.369 333.041 192.258 325.662 199.726 316.594C201.859 314.105 204.26 312.861 206.927 312.861ZM139.719 274.19C133.141 274.19 127.54 278.013 122.918 285.658C118.473 293.303 116.25 302.548 116.25 313.394V313.927C126.74 311.438 135.008 307.705 141.053 302.726C147.098 297.748 150.121 291.97 150.121 285.391C150.121 282.013 149.143 279.346 147.187 277.39C145.409 275.257 142.92 274.19 139.719 274.19ZM334.561 290.458C336.872 290.458 338.65 291.614 339.895 293.925C341.139 296.237 341.762 299.17 341.762 302.726C341.762 307.171 341.139 310.638 339.895 313.127C338.65 315.439 336.695 317.039 334.028 317.928C323.36 321.662 311.625 323.795 298.824 324.329C295.268 339.086 288.512 350.998 278.555 360.066C268.776 369.133 257.931 373.667 246.018 373.667C228.061 373.667 214.993 366.822 206.814 353.132C198.635 339.441 194.546 319.617 194.546 293.659C194.546 270.723 197.391 245.831 203.08 218.984C208.77 191.959 217.037 169.023 227.883 150.177C238.906 131.152 251.974 121.64 267.087 121.64C275.266 121.64 281.844 125.196 286.823 132.308C291.801 139.242 294.29 148.31 294.29 159.511C294.29 174.09 291.534 188.581 286.023 202.982C280.511 217.384 271.354 232.497 258.553 248.32C270.465 249.209 280.155 254.188 287.623 263.255C295.09 272.145 299.535 283.169 300.957 296.326C309.314 295.792 319.27 294.014 330.827 290.992C331.894 290.636 333.139 290.458 334.561 290.458ZM260.953 148.043C257.397 148.043 253.486 153.377 249.219 164.045C245.129 174.535 241.307 188.848 237.751 206.983C234.195 225.118 231.528 244.942 229.75 266.456C241.484 244.942 250.819 226.007 257.753 209.65C264.865 193.115 268.421 178.446 268.421 165.645C268.421 159.956 267.709 155.6 266.287 152.577C265.042 149.554 263.265 148.043 260.953 148.043ZM247.085 345.397C252.597 345.397 257.486 343.086 261.753 338.463C266.02 333.841 268.865 327.173 270.287 318.461C264.776 314.728 260.509 309.838 257.486 303.793C254.641 297.748 253.219 291.347 253.219 284.591C253.219 282.102 253.575 278.724 254.286 274.457H253.486C246.196 274.457 240.062 278.101 235.084 285.391C230.283 292.503 227.883 302.104 227.883 314.194C227.883 324.329 229.75 332.063 233.484 337.397C237.395 342.731 241.929 345.397 247.085 345.397ZM371.54 373.667C353.76 373.667 340.781 366.822 332.602 353.132C324.602 339.441 320.601 319.617 320.601 293.659C320.601 270.723 323.446 245.831 329.135 218.984C334.825 191.959 343.092 169.023 353.938 150.177C364.961 131.152 378.03 121.64 393.142 121.64C401.321 121.64 407.899 125.196 412.878 132.308C417.856 139.242 420.345 148.31 420.345 159.511C420.345 174.09 417.589 188.581 412.078 202.982C406.566 217.384 397.409 232.497 384.608 248.32C393.32 249.032 400.876 251.965 407.277 257.121C413.856 262.278 418.834 268.945 422.212 277.124C425.768 285.302 427.546 294.192 427.546 303.793C427.546 317.128 424.879 329.129 419.545 339.797C414.389 350.465 407.544 358.821 399.01 364.866C390.475 370.734 381.319 373.667 371.54 373.667ZM355.805 266.456C367.54 244.942 376.874 226.007 383.808 209.65C390.92 193.115 394.476 178.446 394.476 165.645C394.476 159.956 393.765 155.6 392.342 152.577C391.098 149.554 389.32 148.043 387.008 148.043C383.452 148.043 379.541 153.377 375.274 164.045C371.184 174.535 367.362 188.848 363.806 206.983C360.25 225.118 357.583 244.942 355.805 266.456ZM372.607 344.864C378.652 344.864 383.719 341.575 387.808 334.996C392.075 328.418 394.209 318.817 394.209 306.193C394.209 296.414 392.431 289.036 388.875 284.058C385.319 279.079 381.052 276.59 376.074 276.59C369.851 276.59 364.606 279.791 360.339 286.191C356.072 292.592 353.938 301.926 353.938 314.194C353.938 324.862 355.716 332.685 359.272 337.663C362.828 342.464 367.273 344.864 372.607 344.864Z" fill="url(#paint0_linear_13312_894)"/>
<defs>
<linearGradient id="paint0_linear_13312_894" x1="437.095" y1="287.146" x2="86.6147" y2="288.11" gradientUnits="userSpaceOnUse">
<stop stop-color="#DDD6FE"/>
<stop offset="1" stop-color="#EDE9FE"/>
</linearGradient>
</defs>
</svg>
