<svg width="250" height="250" viewBox="0 0 250 250" fill="none" xmlns="http://www.w3.org/2000/svg">
<rect width="250" height="250" rx="48" fill="white"/>
<g clip-path="url(#clip0_2_204)">
<path d="M45.5455 194H74.8182V122.909L33 91.5454V181.454C33 188.396 38.6245 194 45.5455 194Z" fill="#4285F4"/>
<path d="M175.182 194H204.455C211.396 194 217 188.375 217 181.454V91.5454L175.182 122.909" fill="#34A853"/>
<path d="M175.182 68.5455V122.909L217 91.5455V74.8182C217 59.3037 199.29 50.4592 186.891 59.7637" fill="#FBBC04"/>
<path d="M74.8182 122.909V68.5454L125 106.182L175.182 68.5454V122.909L125 160.545" fill="#EA4335"/>
<path d="M33 74.8182V91.5455L74.8182 122.909V68.5455L63.1091 59.7637C50.6891 50.4592 33 59.3037 33 74.8182Z" fill="#C5221F"/>
</g>
<defs>
<clipPath id="clip0_2_204">
<rect width="184" height="138" fill="white" transform="translate(33 56)"/>
</clipPath>
</defs>
</svg>
