<svg width="250" height="250" viewBox="0 0 250 250" fill="none" xmlns="http://www.w3.org/2000/svg">
<rect width="250" height="250" rx="48" fill="white"/>
<g clip-path="url(#clip0_1_32)">
<path d="M57.7399 79.5955V40.3867C57.7399 30.9308 64.2681 24.64 73.6053 24.64H167.651C170.737 24.64 173.388 25.55 175.564 27.7656L199.342 52.0188C201.518 54.274 202.389 57.2413 202.389 60.367V135.263L206.108 135.224V58.4679C206.108 55.184 204.842 52.0979 202.547 49.7636L177.463 24.6004C175.168 22.3056 172.003 21 168.759 21H72.0227C62.2107 21 54.2186 28.9921 54.2186 38.8042V81.2967L57.7399 79.5955ZM54.2186 158.685V210.871C54.2186 220.683 62.2107 228.676 72.0227 228.676H94.6538V225.036H73.6053C64.3076 225.036 57.7399 218.705 57.7399 209.289V160.347L54.2186 158.685Z" fill="black"/>
<path d="M193.684 55.5796H171.766V32.6716C171.766 30.9703 171.766 29.6251 170.104 29.6251C168.403 29.6251 168.442 31.0099 168.442 32.6716V55.8566C168.442 57.5579 169.787 58.9031 171.489 58.9031H193.684C195.386 58.9031 196.731 58.9426 196.731 57.2413C196.731 55.5401 195.346 55.5796 193.684 55.5796Z" fill="black"/>
<path d="M112.577 164.739C107.117 164.739 105.969 167.073 105.969 169.012V193.186C105.969 195.125 107.117 197.459 112.577 197.459C118.037 197.459 119.184 195.125 119.184 193.186V169.012C119.184 167.073 118.037 164.739 112.577 164.739ZM109.451 170.199C109.451 168.3 110.401 167.469 112.577 167.469C114.753 167.469 115.702 168.3 115.702 170.199V192.039C115.702 193.938 114.753 194.769 112.577 194.769C110.401 194.769 109.451 193.938 109.451 192.039V170.199Z" fill="#231F20"/>
<path d="M129.392 141.356H125.87V160.862H123.536V163.592H125.87V201.376H129.392V163.592H134.852V160.862H129.392V141.356Z" fill="#231F20"/>
<path d="M143.042 164.739C137.582 164.739 136.434 167.073 136.434 169.012V193.186C136.434 195.125 137.582 197.459 143.042 197.459C148.501 197.459 149.649 195.125 149.649 193.186V189.309H146.128V192.039C146.128 193.938 145.178 194.769 143.002 194.769C140.826 194.769 139.876 193.938 139.876 192.039V185.431C140.747 185.669 141.775 185.787 143.002 185.787C148.462 185.787 149.609 183.453 149.609 181.514V169.051C149.649 167.073 148.501 164.739 143.042 164.739ZM139.916 170.199C139.916 168.3 140.865 167.469 143.042 167.469C145.218 167.469 146.167 168.3 146.167 170.199V180.327C146.167 182.227 145.218 183.057 143.042 183.057C140.865 183.057 139.916 182.227 139.916 180.327V170.199Z" fill="#231F20"/>
<path d="M161.637 164.739C156.177 164.739 155.03 167.073 155.03 169.012V212.256H158.551V197.103C159.421 197.34 160.45 197.459 161.677 197.459C167.136 197.459 168.284 195.125 168.284 193.186V169.012C168.284 167.073 167.136 164.739 161.637 164.739ZM158.551 170.199C158.551 168.3 159.5 167.469 161.677 167.469C163.853 167.469 164.802 168.3 164.802 170.199V192.039C164.802 193.938 163.853 194.769 161.677 194.769C159.5 194.769 158.551 193.938 158.551 192.039V170.199Z" fill="#231F20"/>
<path d="M180.272 164.739C174.812 164.739 173.665 167.073 173.665 169.012V172.889H177.186V170.159C177.186 168.26 178.136 167.429 180.312 167.429C182.488 167.429 183.437 168.26 183.437 170.159V176.767C182.567 176.529 181.538 176.411 180.312 176.411C174.852 176.411 173.704 178.745 173.704 180.684V193.146C173.704 195.085 174.852 197.419 180.312 197.419C185.772 197.419 186.919 195.085 186.919 193.146V168.972C186.919 167.073 185.732 164.739 180.272 164.739ZM177.146 181.87C177.146 179.971 178.096 179.14 180.272 179.14C182.448 179.14 183.398 179.971 183.398 181.87V191.999C183.398 193.898 182.448 194.729 180.272 194.729C178.096 194.729 177.146 193.898 177.146 191.999V181.87Z" fill="#231F20"/>
<path d="M202.31 165.095C201.439 164.858 200.41 164.739 199.184 164.739C193.724 164.739 192.577 167.073 192.577 169.012V193.186C192.577 195.125 193.724 197.459 199.184 197.459C204.644 197.459 205.791 195.125 205.791 193.186V141.356H202.27V165.095H202.31ZM196.098 170.199C196.098 168.3 197.047 167.469 199.224 167.469C201.4 167.469 202.349 168.3 202.349 170.199V192.039C202.349 193.938 201.4 194.769 199.224 194.769C197.047 194.769 196.098 193.938 196.098 192.039V170.199Z" fill="#231F20"/>
<path d="M214.812 164.739H211.291V172.533H207.374V175.263H211.291V183.057H214.812V175.263H218.689V172.533H214.812V164.739Z" fill="#231F20"/>
<path d="M227.671 172.533V164.739H224.149V172.533H220.232V175.263H224.149V183.057H227.671V175.263H231.548V172.533H227.671Z" fill="#231F20"/>
<path d="M97.7399 141.356C92.2799 141.356 91.1325 143.69 91.1325 145.629V219.022H94.6538V146.816C94.6538 144.917 95.6034 144.086 97.7794 144.086C99.9555 144.086 100.905 144.917 100.905 146.816V197.459H104.426V145.629C104.387 143.69 103.239 141.356 97.7399 141.356Z" fill="#231F20"/>
<path d="M56.1968 84.0663C59.5598 80.7428 64.3867 79.8329 68.7784 78.4481C73.8032 78.1711 78.8279 79.7142 83.3778 81.8111C85.3561 82.6024 85.2374 84.9367 85.6726 86.7171C84.2483 87.0336 82.8239 87.3106 81.3996 87.6667C82.0326 86.6776 82.6261 85.728 83.2196 84.7389C83.18 83.7893 82.0722 83.4333 81.5183 82.7606L79.2631 84.3037L77.7201 82.998C76.3353 83.1959 74.8318 83.3937 73.5262 82.642C71.3106 81.6528 68.9367 80.9011 66.4837 81.1385C65.3759 81.6133 64.5054 82.4837 63.5955 83.2354C63.5955 82.8398 63.635 82.0485 63.635 81.6528C63.1207 82.2463 62.6063 82.8398 62.1315 83.4728C58.729 83.8289 57.1464 87.3502 57.8981 90.3966C57.186 90.9506 56.4342 91.544 55.7221 92.0979C56.5133 90.5549 57.186 88.8536 56.276 87.1919C53.7438 87.9436 53.546 90.7132 52.3986 92.6914C51.2117 94.8675 49.1939 96.5292 48.2443 98.824C48.1652 100.09 48.363 101.317 48.4817 102.583C47.5321 102.306 46.5826 102.068 45.6726 101.791C48.0465 95.3422 50.9347 88.6954 56.1968 84.0663Z" fill="#90E59A"/>
<path d="M63.5955 83.275C64.545 82.5232 65.3759 81.6133 66.4837 81.178C68.9367 80.9406 71.3106 81.6924 73.5262 82.6815C73.2097 84.0663 72.7349 85.4115 72.1019 86.6775C70.2028 85.6884 68.3037 84.6202 66.5232 83.4728L67.5915 85.6093C67.1958 86.1632 66.7606 86.6775 66.365 87.2314C65.5737 86.2028 64.7824 85.1741 64.0307 84.1058C63.7537 85.6489 62.6063 86.7962 61.0237 85.9258C61.3798 85.095 61.7359 84.3037 62.092 83.5124C62.5668 82.8793 63.0811 82.2858 63.5955 81.6924C63.635 82.0485 63.5955 82.8398 63.5955 83.275Z" fill="#5CCE74"/>
<path d="M73.5262 82.642C74.8318 83.3937 76.2957 83.1959 77.7201 82.998L79.2631 84.3037L81.5183 82.7607C82.0326 83.4333 83.18 83.7893 83.2196 84.7389C82.6657 85.728 82.0326 86.7171 81.3996 87.6667C81.0435 87.7458 80.3314 87.9041 80.0148 88.0228C80.727 88.8932 81.4392 89.7636 82.1513 90.5945C79.1444 90.7527 76.9684 88.6954 74.6736 87.1919C72.5767 87.5084 71.0732 89.7636 68.8971 90.001C67.8289 89.5262 66.8398 88.8932 65.8506 88.2602C65.4946 89.4075 65.2572 90.5945 64.5846 91.5836C63.5955 92.2562 62.3294 92.2562 61.182 92.5727C61.2216 93.0871 61.3007 93.641 61.3403 94.1553C60.1137 92.9684 58.6103 91.8606 56.8694 92.6519C58.1355 93.9575 56.2364 94.4718 55.366 95.0653C53.6647 96.0149 51.7656 97.2414 51.5678 99.3779C51.093 100.604 51.6073 102.503 50.2226 103.176C48.6004 103.611 46.9387 103.334 45.3165 103.295C45.4352 102.899 45.633 102.147 45.7517 101.752C46.7013 102.029 47.6508 102.266 48.5608 102.543C48.4026 101.277 48.2047 100.05 48.3234 98.7844C49.273 96.4896 51.2908 94.8279 52.4777 92.6519C53.6251 90.6736 53.8229 87.9041 56.3551 87.1524C57.2651 88.8141 56.5925 90.5154 55.8012 92.0584C56.5133 91.4649 57.2255 90.911 57.9772 90.3571C57.2255 87.3106 58.8081 83.7893 62.2107 83.4333C61.8546 84.2246 61.4985 85.0554 61.1424 85.8467C62.6855 86.7171 63.8724 85.5698 64.1494 84.0267C64.9011 85.095 65.6924 86.1237 66.4837 87.1524C66.8793 86.5984 67.275 86.0841 67.7102 85.5302L66.6419 83.3937C68.4619 84.5411 70.3215 85.5698 72.2206 86.5984C72.7349 85.4115 73.2097 84.0663 73.5262 82.642ZM57.7399 107.805C58.6103 107.963 59.4411 108.122 60.3116 108.32C59.3225 110.97 57.9377 113.661 58.0959 116.589C58.6103 118.488 60.1929 119.912 61.3798 121.455C59.639 121.969 57.2255 121.574 56.0386 123.196C55.3264 126.361 58.2146 128.181 60.0742 130.12C57.3838 129.131 54.3769 127.706 53.4273 124.739C54.7329 123.117 56.3551 121.811 58.0564 120.545C55.6034 116.826 54.5351 111.366 57.7399 107.805ZM85.1583 114.492C85.7913 115.046 86.4639 115.599 87.0969 116.114C87.1761 117.182 87.2552 118.29 87.2948 119.358C86.1869 117.934 85.1978 116.391 85.1583 114.492ZM102.013 115.322C102.685 114.373 103.833 114.452 104.545 115.283C105.89 117.024 106.642 119.081 107.552 121.059C108.699 121.139 109.847 121.218 110.954 121.297C108.699 122.128 106.563 123.394 106.246 126.005C105.297 124.66 106.682 123.433 107.235 122.207C105.969 119.556 102.883 118.211 102.013 115.322ZM69.728 117.024L70.4006 116.668C70.5193 118.448 71.3501 120.505 70.0445 122.009C68.7389 121.89 67.4728 121.811 66.2067 121.574C67.908 120.466 69.1741 119.081 69.728 117.024ZM87.2948 119.398C88.2443 120.664 89.3126 121.772 90.4995 122.8C91.7656 121.336 94.5747 119.002 95.7221 121.772C93.823 122.682 91.4491 123.354 90.816 125.649C90.816 125.728 90.7765 125.847 90.7765 125.926C91.0534 127.944 91.8051 129.882 92.3986 131.821C88.0465 129.012 90.6578 122.958 87.2948 119.398ZM110.954 119.952C112.814 120.149 114.792 120.585 116.217 121.969C114.436 121.851 112.616 121.93 110.954 121.297V119.952ZM106.286 130.159C108.541 131.148 110.757 132.217 113.131 133.008C114.476 132.454 116.375 129.487 117.483 131.663C115.742 133.245 113.328 134.867 110.875 134.314C108.976 133.404 107.75 131.584 106.286 130.159ZM43.4965 130.515C43.9317 130.594 44.7626 130.713 45.2374 130.753C47.1365 135.144 47.2156 140.248 49.8269 144.363C51.3304 146.816 52.5569 149.388 53.9812 151.88C55.4847 154.452 57.9772 156.193 60.3116 157.973C65.2967 161.653 73.5262 161.099 77.0475 155.679C79.3027 150.852 76.4936 145.748 74.5549 141.317C71.2315 136.094 62.5668 140.05 62.8042 145.748C61.815 140.09 69.0554 135.303 73.8823 138.191C77.3244 140.407 78.274 144.6 79.6192 148.201C81.2018 152.513 78.8675 157.617 74.7923 159.516C71.6271 161.534 67.7498 160.743 64.2285 160.743C59.4016 160.505 56.276 156.589 53.1503 153.463C50.1039 149.744 48.1256 145.313 45.7517 141.119C44.4857 137.756 43.7735 134.155 43.4965 130.515ZM69.1345 144.996C69.6884 145.629 70.1236 146.341 70.6775 147.014C69.3323 148.755 67.1563 148.676 65.2176 148.399C64.4263 147.528 63.5955 146.658 62.8042 145.787C64.7033 146.935 66.8398 149.269 69.2137 147.805C69.1345 146.856 69.1345 145.946 69.1345 144.996Z" fill="#75D66F"/>
<path d="M68.818 90.001C70.9941 89.7636 72.4975 87.5084 74.5944 87.1919C76.9288 88.7349 79.1048 90.7527 82.0722 90.5944C81.36 89.724 80.6479 88.8536 79.9357 88.0227C80.2918 87.9436 81.0039 87.7458 81.3205 87.6667C82.7448 87.3106 84.1691 87.0336 85.5935 86.7171C85.9495 88.0623 86.3056 89.4471 86.7408 90.7923C86.0682 91.4649 85.3956 92.177 84.6835 92.8496C86.1474 94.8674 87.4926 97.0039 88.9565 99.0217C92.003 98.1909 93.9416 101.119 95.2868 103.413C92.5569 103.255 89.4708 103.216 87.3343 101.237C86.0287 100.05 84.7626 98.8239 83.3778 97.6765L80.8853 98.3887C80.2127 96.7666 79.817 94.6301 77.7596 94.2344C77.9179 95.0653 78.1157 95.8566 78.274 96.6874C77.0475 97.3996 75.7023 97.7161 74.3175 97.3205C74.8714 96.1731 75.4649 95.0653 76.0583 93.9179C74.3571 93.7596 73.3679 95.2235 72.4184 96.3709C72.2206 95.7774 72.0227 95.184 71.8645 94.5905C71.2314 94.5114 70.638 94.3531 70.0049 94.3135C69.0949 94.5114 68.7389 95.817 67.7497 95.8566C66.1276 95.6983 64.5846 95.0257 62.9228 94.9466C60.9446 95.2235 59.0851 96.094 57.1464 96.6479C56.5133 96.1335 55.8407 95.6192 55.2077 95.1048C56.0781 94.4718 58.0168 93.997 56.7112 92.6914C58.4916 91.9001 59.9555 93.0079 61.182 94.1948C61.1424 93.6805 61.0633 93.1266 61.0237 92.6123C62.1711 92.3353 63.3976 92.2957 64.4263 91.6231C65.0989 90.634 65.3363 89.4075 65.6924 88.2997C66.7606 88.8932 67.7497 89.5262 68.818 90.001Z" fill="#8FE772"/>
<path d="M84.723 92.8497C85.3956 92.1771 86.0682 91.4649 86.7804 90.7923C87.453 92.8101 88.3234 94.8675 90.0247 96.2127C92.8734 98.3887 95.8408 100.763 99.4016 101.593C102.567 102.187 106.048 101.831 108.778 100.011C111.152 97.8744 112.26 94.7488 114.713 92.6914C117.008 93.8388 119.58 94.3531 121.795 95.6588C124.09 97.1227 125.198 99.7339 126.583 101.989C125.079 102.266 123.615 102.583 122.112 102.899C122.666 103.849 123.259 104.838 123.853 105.787C123.457 106.381 123.061 106.974 122.705 107.607C121.954 106.42 121.241 105.233 120.529 104.047C118.907 104.442 117.364 105.075 115.979 105.946L116.454 108.201C112.972 106.42 109.253 108.201 106.128 109.942C105.178 110.456 104.189 111.049 103.239 111.564C101.261 110.496 99.3225 109.388 97.2255 108.557C96.3947 109.902 95.4055 111.208 94.4164 112.474C94.0603 111.445 93.6647 110.416 93.3482 109.348C92.9921 109.388 92.2799 109.506 91.9238 109.546C91.7656 111.01 91.8051 112.474 92.003 113.938C91.0534 113.819 90.0643 113.7 89.1147 113.582C89.55 111.603 90.0643 109.665 90.4599 107.647C89.9852 107.686 88.996 107.766 88.5213 107.805C86.8991 110.298 86.82 113.305 87.1365 116.193C86.4639 115.639 85.8309 115.085 85.1978 114.571C85.277 112.513 85.5539 110.496 85.7122 108.438C83.5757 107.528 82.7052 109.981 82.3096 111.564C81.1226 111.168 79.9357 110.812 78.7883 110.377C76.1375 109.546 74.3966 107.212 71.8249 106.183C70.4797 105.629 69.4906 104.521 68.4619 103.532C68.3432 103.928 68.1058 104.719 68.0267 105.115C69.0554 106.856 69.0554 109.111 67.0376 110.179C66.4046 110.1 65.1385 109.942 64.4659 109.823C66.6024 111.999 69.728 112.395 72.5371 113.146L70.9545 114.254C68.2641 113.384 65.3363 113.305 62.8042 111.92C62.725 110.891 62.6063 109.823 62.5272 108.794C61.7755 108.636 61.0633 108.517 60.3116 108.359C59.4411 108.201 58.6103 108.043 57.7399 107.845C57.1068 107.093 56.3947 105.787 55.2473 106.46C54.3373 107.291 53.5856 108.28 52.7151 109.19C52.2008 108.478 51.6469 107.766 51.1325 107.053C47.2552 107.528 47.5717 112.197 45.0791 114.294C43.4965 115.441 43.5757 117.617 42.1118 118.883C41.9139 117.103 41.7953 115.362 41.9931 113.582C42.7844 110.456 44.1691 107.528 44.9604 104.363C45.0396 104.126 45.1583 103.611 45.2374 103.334C46.8595 103.413 48.5608 103.651 50.1434 103.216C51.5282 102.543 50.9743 100.644 51.4886 99.4174C51.726 97.2809 53.5856 96.0544 55.2868 95.1049C55.9199 95.6192 56.5925 96.1335 57.2255 96.6479C59.1642 96.0544 61.0237 95.2236 63.002 94.9466C64.6637 95.0257 66.2067 95.6983 67.8289 95.8566C68.818 95.817 69.1345 94.5114 70.0841 94.3136C70.7171 94.3531 71.3106 94.5114 71.9436 94.5905C72.1414 95.184 72.3393 95.7775 72.4975 96.3709C73.4866 95.2236 74.4362 93.7597 76.1375 93.9179C75.544 95.0653 74.9901 96.1731 74.3966 97.3205C75.7814 97.7161 77.1266 97.3601 78.3531 96.6875C78.1553 95.8566 77.997 95.0653 77.8388 94.2344C79.8961 94.5905 80.2918 96.727 80.9644 98.3887L83.457 97.6766C84.8022 98.824 86.1078 100.05 87.4135 101.237C89.55 103.216 92.636 103.255 95.366 103.413C94.0603 101.158 92.0821 98.1909 89.0356 99.0218C87.5717 97.004 86.1869 94.8675 84.723 92.8497Z" fill="#A9F37E"/>
<path d="M122.151 102.899C123.655 102.583 125.119 102.306 126.622 101.989C127.097 103.018 127.493 104.047 127.888 105.075C123.774 109.19 117.72 110.258 112.3 111.524C110.045 112.197 107.948 111.01 106.088 109.942C109.214 108.24 112.933 106.42 116.414 108.201L115.94 105.946C117.364 105.075 118.907 104.442 120.49 104.047C121.202 105.233 121.954 106.42 122.666 107.607C123.022 107.014 123.417 106.381 123.813 105.787C123.299 104.838 122.705 103.849 122.151 102.899Z" fill="#87DE71"/>
<path d="M92.2404 93.641L92.1612 94.1157C95.5638 97.5183 100.628 99.6152 105.376 98.2305C107.196 97.2413 109.016 96.0148 109.886 94.0762C112.854 87.9436 113.368 80.7033 111.35 74.2146C109.53 72.909 107.789 71.4055 106.721 69.4273C104.545 66.4204 100.945 63.2552 96.9881 64.6795C92.9525 65.2334 90.1039 68.7943 88.996 72.5133C87.4926 77.2611 86.9782 82.6419 89.0356 87.3106C89.4313 89.6449 89.8665 92.5331 92.2404 93.641ZM99.8368 81.9693C100.707 84.541 99.2829 88.1019 96.1177 88.1414C94.6934 87.1523 92.7151 86.2423 93.0317 84.185C92.4777 80.3867 97.6212 80.5054 99.8368 81.9693Z" fill="#FBFDFC"/>
<path d="M126.464 96.9248C128.284 94.9861 130.5 93.4827 132.438 91.7023C135.762 86.8358 138.571 80.3867 136.039 74.5312C135.168 70.6538 130.658 69.3086 127.137 69.7438C122.507 70.5351 117.404 72.1968 114.951 76.5885C115.03 80.8615 115.702 85.1345 114.832 89.368C119.342 90.5549 124.248 92.5331 126.464 96.9248ZM129.787 78.9228C130.697 78.725 131.647 78.4876 132.557 78.2107C133.586 79.7933 133.546 82.0485 132.992 83.7893C131.172 85.5697 128.561 83.7497 127.809 81.8111C128.482 80.822 129.154 79.8724 129.787 78.9228Z" fill="#FBFDFC"/>
<path d="M110.954 119.952C110.994 119.991 110.994 119.991 110.954 119.952Z" fill="#231F20"/>
<path d="M32.6162 122.563C32.181 123.552 31.6667 124.581 31.1523 125.53C31.5875 126.796 32.2601 127.983 33.0514 129.051C33.2888 128.933 33.7636 128.735 33.9614 128.656C32.2601 126.678 33.6053 124.304 34.7132 122.405C34.001 122.523 33.2888 122.563 32.6162 122.563Z" fill="white"/>
<path d="M37.5618 123.315L37.4036 122.879C37.3244 123.038 37.2057 123.354 37.1662 123.512L36.731 124.027C36.6518 124.106 36.4936 124.304 36.454 124.383C35.4253 125.253 35.6231 126.598 35.5044 127.785C35.6627 128.062 36.0188 128.656 36.1771 128.972C37.9575 130.041 37.6014 126.124 36.3749 126.045C37.1266 125.135 37.9575 124.264 38.1949 123.077L37.5618 123.315Z" fill="white"/>
<path d="M96.1177 88.1414C99.2829 88.1414 100.668 84.5411 99.8368 81.9693C97.6212 80.5054 92.5173 80.3868 93.0317 84.1454C92.7151 86.2028 94.6934 87.1523 96.1177 88.1414Z" fill="#231F20"/>
<path d="M132.992 83.7498C133.546 82.0089 133.586 79.7537 132.557 78.1711C131.647 78.4481 130.737 78.6855 129.787 78.8833C129.115 79.8329 128.482 80.7824 127.809 81.732C128.561 83.7102 131.133 85.5302 132.992 83.7498Z" fill="#231F20"/>
<path d="M131.251 122.009C127.176 121.297 123.061 121.969 118.986 121.89C117.166 120.664 115.386 119.239 113.131 119.081C112.418 119.398 111.706 119.675 110.994 119.952C112.854 120.149 114.792 120.585 116.217 121.93C114.436 121.811 112.616 121.89 110.954 121.257C108.699 122.088 106.563 123.354 106.246 125.965C105.297 124.62 106.681 123.394 107.235 122.167C105.969 119.516 102.923 118.132 102.013 115.283C102.685 114.333 103.833 114.412 104.545 115.243C105.89 116.984 106.642 119.042 107.552 121.02C108.699 121.099 109.847 121.178 110.954 121.257V119.952C110.401 120.189 109.807 120.426 109.253 120.703C108.264 118.527 107.433 116.312 106.721 114.056C108.066 114.373 109.372 114.848 110.717 115.125C116.889 114.175 123.497 112.949 128.323 108.676C129.352 107.647 131.172 106.737 130.856 105.036C130.737 104.165 130.46 103.334 130.064 102.583C129.392 101.158 128.442 99.8526 127.849 98.3492C129.233 97.8348 130.658 97.3205 132.003 96.6874C136.83 91.9792 139.243 85.2532 139.758 78.6063C139.283 75.0851 138.294 71.2077 135.564 68.7151C130.579 66.2226 124.723 67.0138 119.659 68.8338C117.364 69.7438 115.702 71.6034 113.764 73.1068C112.221 72.7507 111.271 70.9703 110.242 69.7834C108.264 66.4204 105.574 63.3343 101.894 61.8704C98.8081 61.7517 95.2868 60.9209 92.636 62.8991C91.2908 63.7695 89.7873 64.5608 88.8378 65.9456C86.7013 69.9416 85.4748 74.3729 85.1187 78.8437C84.4461 78.5668 83.7735 78.3294 83.1009 78.0524C78.3927 76.3116 73.4866 75.1246 68.4619 75.2829C64.9802 75.9555 61.5776 76.9842 58.3333 78.4481C51.726 81.8902 47.5321 88.6162 45.0791 95.4609C43.5757 98.4679 42.5074 101.633 41.9139 104.917C41.36 107.884 40.2127 110.773 40.0544 113.819C40.0544 115.876 40.2127 117.934 40.1731 119.991C40.094 120.031 39.9753 120.11 39.8961 120.149C37.7596 121.336 35.2275 121.297 32.8536 121.692C31.0732 121.653 29.3719 120.782 27.5915 121.297H27.5519C25.6528 122.207 23.635 122.721 21.7359 123.591C21.3007 126.282 20.8655 130.001 24.1098 131.03H27.5915C31.7062 131.03 35.7814 131.069 39.8961 131.109H40.8457C41.8348 136.252 42.8239 141.554 45.5539 146.104C48.7587 151.287 51.9238 156.707 56.7903 160.505C61.4589 163.631 67.3541 163.75 72.6954 162.8C74.7132 162.563 76.1375 160.98 77.9575 160.228C79.0653 159.556 80.727 159.398 81.1226 157.973C84.7626 152.039 81.9931 144.719 78.6696 139.299C76.5727 135.58 71.9832 134.828 68.1058 134.986C65.8111 135.342 64.3867 137.281 62.5272 138.468C60.5094 139.694 58.5312 142.306 60.0742 144.68C61.3798 147.172 63.002 150.496 66.3254 150.298C68.4224 150.06 71.1919 149.586 72.1019 147.41C72.4975 144.759 69.3719 143.493 67.275 143.018C67.3937 144.323 67.5124 145.59 67.6311 146.895C66.5628 146.143 65.455 145.431 64.3472 144.68C65.0198 141.198 68.8971 141.277 71.5875 140.209C74.3175 144.442 77.1662 149.902 74.9505 154.966C72.3788 158.171 67.7498 157.775 64.1889 156.945C59.5203 156.232 56.3947 152.039 54.3373 148.122C51.2117 142.701 47.4134 136.885 48.0861 130.357C50.2621 130.318 52.4777 130.159 54.6142 130.397C56.7112 130.871 58.5707 132.691 60.8259 131.821C65.6528 130.515 70.6775 131.307 75.6231 131.228C79.5005 131.03 83.4174 130.832 87.2948 131.069C88.6795 131.465 89.4708 133.166 91.093 133.047C92.9525 133.681 94.0208 131.742 95.4055 130.951C98.5312 130.832 101.696 130.753 104.782 130.951C106.246 133.522 108.462 136.292 111.627 136.687C115.465 136.846 118.749 134.116 120.806 131.109C123.536 131.742 126.464 132.573 129.115 131.228C134.852 128.814 141.182 128.814 147.077 127.113V125.411C142.448 122.484 136.592 123.354 131.251 122.009ZM104.782 122.128C101.261 122.207 97.0673 122.642 94.9308 119.16C93.5064 119.556 92.0821 120.11 91.3304 121.495C90.816 121.218 89.7478 120.624 89.2334 120.347C89.2334 119.042 89.2334 117.736 89.3521 116.43H91.6073H91.726C93.9021 116.549 96.0386 116.193 98.1751 115.916C99.2829 116.035 99.5598 117.38 100.272 118.052C101.538 119.635 103.318 120.743 104.782 122.128ZM102.29 125.728C99.5598 125.807 96.8694 125.807 94.179 125.649C93.9021 124.027 95.9594 124.343 96.9486 124.106C99.2433 123.948 101.499 124.066 103.793 124.066C103.872 125.214 103.398 125.768 102.29 125.728ZM114.951 76.6281C117.404 72.2364 122.507 70.5747 127.137 69.7834C130.658 69.3482 135.129 70.6934 136.039 74.5707C138.571 80.3867 135.762 86.8358 132.438 91.7418C130.5 93.5618 128.284 95.0257 126.464 96.9644C124.248 92.5331 119.342 90.5549 114.832 89.4471C115.663 85.1741 115.03 80.8615 114.951 76.6281ZM88.996 72.5134C90.1039 68.7943 92.9525 65.2334 96.9881 64.6795C100.945 63.2552 104.585 66.4204 106.721 69.4273C107.829 71.4451 109.53 72.909 111.35 74.2146C113.368 80.7033 112.854 87.9436 109.886 94.0762C109.016 96.0544 107.156 97.2413 105.376 98.2305C100.589 99.6152 95.5638 97.5183 92.1612 94.1157L92.2404 93.641C89.8269 92.5331 89.4313 89.6053 88.996 87.3106C86.9782 82.6419 87.4926 77.2611 88.996 72.5134ZM27.5915 129.764C26.1672 129.724 24.7824 129.645 23.3581 129.408C23.1207 128.062 22.5272 126.084 23.912 125.174C25.3363 124.383 26.3254 123.117 27.1563 121.732C27.3145 121.772 27.4332 121.772 27.5915 121.772C28.7784 121.93 30.0049 121.89 31.1919 121.653C31.0732 123.196 28.9763 123.868 29.2532 125.451C29.6093 126.994 30.4797 128.379 31.1128 129.843C29.9258 129.803 28.7784 129.764 27.5915 129.764ZM33.9614 128.695C33.724 128.814 33.2493 129.012 33.0514 129.091C32.2601 127.983 31.6271 126.836 31.1523 125.57C31.7062 124.62 32.181 123.591 32.6162 122.602C33.2888 122.563 34.001 122.523 34.6736 122.444C33.6053 124.343 32.2601 126.678 33.9614 128.695ZM36.0979 128.933C35.9397 128.656 35.5836 128.062 35.4253 127.746C35.544 126.559 35.3462 125.214 36.3749 124.343C36.454 124.264 36.5727 124.106 36.6518 123.987L37.087 123.473C37.1662 123.315 37.2849 122.998 37.3244 122.84L37.4827 123.275L38.0366 123.038C37.8388 124.225 36.9683 125.095 36.2166 126.005C37.5618 126.084 37.8783 130.001 36.0979 128.933ZM38.9861 125.609C39.184 125.016 39.5005 124.581 39.8961 124.264C41.2809 123.196 43.6548 123.473 45.3165 123.354C47.2948 123.631 49.7478 122.84 51.2512 124.541L50.6182 125.965C47.0574 125.807 43.457 125.728 39.8961 125.649C39.5796 125.649 39.3027 125.649 38.9861 125.609ZM55.4847 119.872C53.4273 120.941 51.1325 120.98 48.9169 120.98C48.4421 117.578 50.5786 114.689 52.1612 111.88C52.8734 111.722 53.5856 111.564 54.2977 111.366C53.3086 114.294 53.8625 117.301 55.4847 119.872ZM49.7873 144.403C51.2908 146.856 52.5173 149.427 53.9416 151.92C55.4451 154.492 57.9377 156.232 60.272 158.013C65.2572 161.692 73.4866 161.138 77.0079 155.718C79.2631 150.891 76.454 145.787 74.5153 141.356C71.1919 136.134 62.5272 140.09 62.7646 145.787C64.6637 146.935 66.8002 149.269 69.1741 147.805C69.1345 146.895 69.095 145.946 69.095 144.996C69.6489 145.629 70.0841 146.341 70.638 147.014C69.2928 148.755 67.1167 148.676 65.178 148.399C64.3867 147.528 63.5559 146.658 62.7646 145.787C61.7755 140.13 69.0158 135.342 73.8427 138.23C77.2849 140.446 78.2344 144.64 79.5796 148.24C81.1622 152.553 78.8279 157.657 74.7527 159.556C71.5875 161.574 67.7102 160.782 64.1889 160.782C59.362 160.545 56.2364 156.628 53.1108 153.502C50.0643 149.783 48.0861 145.352 45.7122 141.158C44.4857 137.756 43.7735 134.116 43.4965 130.515C43.9317 130.594 44.7626 130.713 45.2374 130.753C47.0969 135.184 47.2156 140.248 49.7873 144.403ZM40.45 128.814C40.2918 128.537 40.0544 127.983 39.8961 127.706C44.09 127.034 48.2839 128.023 52.4777 128.181C52.636 128.379 52.9525 128.735 53.1503 128.933C48.9169 128.933 44.6439 129.249 40.45 128.814ZM53.4669 124.699C54.7725 123.077 56.3947 121.772 58.0959 120.505C55.6429 116.826 54.5351 111.366 57.7399 107.805C57.1068 107.053 56.3947 105.748 55.2473 106.42C54.3373 107.251 53.5856 108.24 52.7151 109.15C49.0356 111.959 47.6113 116.43 45.3956 120.268C44.3274 120.228 43.2591 120.189 42.1909 120.189C42.1909 119.872 42.1513 119.2 42.1118 118.844C41.9139 117.063 41.7952 115.322 41.9931 113.542C42.7844 110.416 44.1691 107.489 44.9604 104.323C45.0396 104.086 45.1583 103.572 45.2374 103.295C45.3561 102.899 45.5539 102.147 45.6726 101.752C48.0465 95.3027 50.9743 88.6954 56.1968 84.0267C59.5598 80.7033 64.3867 79.7933 68.7784 78.4085C73.724 78.1316 78.6696 79.635 83.1405 81.6924L83.3778 81.8111C85.3561 82.6024 85.2374 84.9367 85.6726 86.7171C86.0287 88.0623 86.3848 89.4471 86.82 90.7923C87.4926 92.8101 88.363 94.8675 90.0643 96.2127C92.913 98.3887 95.8803 100.763 99.4411 101.593C102.606 102.187 106.088 101.831 108.818 100.011C111.192 97.8744 112.3 94.7488 114.753 92.6914C117.047 93.8388 119.619 94.3531 121.835 95.6588C124.13 97.1227 125.237 99.7339 126.622 101.989L126.86 102.583C127.216 103.413 127.532 104.244 127.888 105.075C123.773 109.19 117.72 110.258 112.3 111.524C110.045 112.197 107.948 111.01 106.088 109.942C105.138 110.456 104.149 111.049 103.2 111.564C99.7972 113.384 95.8408 114.373 91.9634 113.938C91.0138 113.819 90.0247 113.7 89.0752 113.582C89.5104 111.603 90.0247 109.665 90.4204 107.647C89.9456 107.686 88.9565 107.766 88.4817 107.805C86.8595 110.298 86.7804 113.305 87.0969 116.193C87.1761 117.261 87.2552 118.369 87.2948 119.437C86.1474 118.013 85.1978 116.43 85.1583 114.571C85.2374 112.513 85.5143 110.496 85.6726 108.438C83.5361 107.528 82.6657 109.981 82.27 111.564C82.27 112.434 82.3492 113.305 82.3887 114.175C78.6301 115.046 74.634 115.481 70.9149 114.254C68.2245 113.384 65.2967 113.305 62.7646 111.92C62.6855 110.891 62.5668 109.823 62.4876 108.794C61.7359 108.636 61.0237 108.517 60.272 108.359C59.2829 111.01 57.8981 113.7 58.0564 116.628C58.5707 118.527 60.1533 119.952 61.3403 121.495C59.5994 122.009 57.1859 121.613 55.999 123.235C55.2868 126.401 58.1751 128.221 60.0346 130.159C57.3838 129.091 54.3769 127.667 53.4669 124.699ZM86.6617 122.484C81.7557 122.563 76.8101 122.721 71.9041 122.286C72.2206 120.664 72.7745 119.081 73.2097 117.459C76.6518 117.34 80.094 117.459 83.5361 117.301C85.1978 118.567 85.91 120.624 86.6617 122.484ZM70.0445 122.009C68.7389 121.89 67.4728 121.811 66.2067 121.574C67.908 120.426 69.1741 119.042 69.728 117.024L70.4006 116.668C70.5193 118.448 71.3501 120.505 70.0445 122.009ZM66.1672 116.074C65.9298 116.984 65.7319 117.894 65.5737 118.844C64.3472 119.516 63.2394 120.426 62.1711 121.257C60.7468 119.16 60.1929 116.707 60.6677 114.215C62.4876 114.769 64.7033 114.689 66.1672 116.074ZM58.8081 125.807C58.5707 124.976 58.3333 124.106 58.0564 123.275C59.8764 123.71 62.7646 122.642 63.8724 124.145C65.4946 124.422 67.0376 125.174 68.6993 125.214C74.5945 123.473 80.8457 124.422 86.8991 124.422C86.9387 124.937 87.0178 126.005 87.0574 126.519C82.5074 126.678 77.9575 126.717 73.4075 126.598C71.0336 126.598 68.7784 125.016 66.4045 125.728C65.3759 125.807 64.1889 126.915 63.2789 125.965C61.7359 125.886 60.272 125.847 58.8081 125.807ZM86.8595 129.645C80.0148 129.882 73.2097 129.764 66.365 129.724C64.9407 129.684 63.4768 129.605 62.0524 129.566C61.6963 129.091 61.3403 128.577 60.9842 128.102C62.7646 128.102 64.545 128.141 66.365 128.102C73.368 128.181 80.3709 128.3 87.3739 128.774C87.2156 129.012 86.9782 129.447 86.8595 129.645ZM87.8882 120.07C88.6795 121.059 89.55 121.93 90.4995 122.761C91.7656 121.297 94.5747 118.962 95.7221 121.732C93.8229 122.642 91.4491 123.315 90.816 125.609L90.7765 125.886C91.0534 127.904 91.8051 129.843 92.3986 131.781C88.3234 129.17 90.3412 123.71 87.8882 120.07ZM110.875 134.314C108.976 133.404 107.789 131.584 106.325 130.159C108.581 131.148 110.796 132.217 113.17 133.008C114.515 132.454 116.414 129.487 117.522 131.663C115.742 133.245 113.328 134.867 110.875 134.314ZM122.428 129.447C120.608 129.684 118.907 128.537 117.047 128.695C113.408 128.933 109.728 129.249 106.128 128.458C102.013 129.328 97.7794 128.933 93.6251 129.17C93.5856 128.774 93.546 127.983 93.5064 127.588C97.7399 127.231 101.973 127.39 106.128 128.221C110.005 127.706 113.961 128.181 117.839 127.508C119.421 127.627 122.784 126.915 122.428 129.447ZM115.465 126.084C113.091 125.768 110.598 126.203 108.264 125.491C108.422 125.214 108.739 124.62 108.897 124.304C113.131 123.948 117.364 123.354 121.677 123.591C122.863 123.829 123.774 124.778 124.763 125.411C121.874 126.836 118.551 126.48 115.465 126.084ZM136.078 127.864C132.873 128.458 129.866 129.882 126.583 129.961C126.662 129.091 126.701 128.181 126.701 127.311C127.057 127.073 127.809 126.559 128.205 126.321C128.284 125.372 128.403 124.422 128.482 123.473C131.133 123.354 133.625 124.343 136.236 124.62C136.276 125.649 136.592 126.836 136.078 127.864Z" fill="#231F20"/>
<path d="M68.4619 103.493C69.4906 104.482 70.4797 105.59 71.8249 106.143C74.3571 107.133 76.1375 109.506 78.7883 110.337C78.5509 110.733 78.3135 111.168 78.0762 111.564C74.4758 110.416 70.638 111.287 67.0376 110.14C69.0554 109.071 69.0554 106.816 68.0267 105.075C68.1058 104.68 68.3432 103.888 68.4619 103.493Z" fill="#97EB74"/>
<path d="M45.0396 114.254C47.5321 112.157 47.2156 107.489 51.093 107.014C51.6469 107.726 52.1612 108.438 52.6756 109.15C48.996 111.959 47.5717 116.43 45.3561 120.268C44.2878 120.228 43.2196 120.189 42.1513 120.189C42.1513 119.872 42.1118 119.2 42.0722 118.844C43.5361 117.578 43.457 115.402 45.0396 114.254Z" fill="#84CB71"/>
<path d="M97.1859 108.557C99.2829 109.388 101.222 110.496 103.2 111.564C99.7972 113.384 95.8407 114.373 91.9634 113.938C91.7656 112.474 91.726 111.01 91.8843 109.546C92.2403 109.506 92.9525 109.427 93.3086 109.348C93.6647 110.377 94.0208 111.406 94.3768 112.474C95.366 111.208 96.3155 109.902 97.1859 108.557Z" fill="#6CB960"/>
<path d="M64.4659 109.783C65.0989 109.863 66.365 110.021 67.0376 110.14C70.638 111.287 74.4758 110.416 78.0762 111.564C78.3135 111.168 78.5509 110.733 78.7883 110.337C79.9753 110.773 81.1226 111.129 82.3096 111.524C82.3096 112.395 82.3887 113.265 82.4283 114.136C78.6696 115.006 74.6736 115.441 70.9545 114.215L72.5371 113.107C69.728 112.355 66.6024 111.96 64.4659 109.783Z" fill="#77C66C"/>
<path d="M27.1958 121.732C28.541 121.93 29.8863 121.93 31.2315 121.653C31.1128 123.196 29.0158 123.868 29.2928 125.451C29.6489 126.994 30.5193 128.379 31.1523 129.843C28.5806 129.724 25.9693 129.882 23.4372 129.408C23.1998 128.062 22.6063 126.084 23.9911 125.174C25.3759 124.343 26.365 123.117 27.1958 121.732Z" fill="#D07B84"/>
<path d="M128.482 123.473C131.133 123.354 133.625 124.343 136.236 124.62C136.236 125.688 136.553 126.875 136.039 127.904C132.834 128.498 129.827 129.922 126.543 130.001C126.622 129.131 126.662 128.221 126.662 127.35C127.018 127.113 127.77 126.598 128.165 126.361C128.284 125.372 128.403 124.422 128.482 123.473Z" fill="#FEFEFE"/>
<path d="M58.0564 123.275C59.8764 123.71 62.7646 122.642 63.8724 124.145L62.6063 123.987C62.8042 124.62 63.002 125.293 63.2394 125.926C61.7755 125.926 60.272 125.847 58.8081 125.847C58.5707 124.976 58.2938 124.106 58.0564 123.275ZM39.8961 127.706C44.09 127.034 48.2839 128.023 52.4777 128.181C52.636 128.379 52.9525 128.735 53.1503 128.933C48.9169 128.933 44.6439 129.249 40.45 128.814C40.2918 128.537 40.0148 127.983 39.8961 127.706Z" fill="#E1CB86"/>
<path d="M38.9862 125.609C39.7774 122.998 43.18 123.473 45.3561 123.354C47.3343 123.631 49.7873 122.84 51.2908 124.541L50.6578 125.965C46.7409 125.768 42.8635 125.728 38.9862 125.609ZM66.365 128.141C73.368 128.221 80.3709 128.339 87.3739 128.814C87.2552 129.051 86.9782 129.487 86.8595 129.684C80.0148 129.922 73.2097 129.803 66.365 129.764V128.141Z" fill="#DDC377"/>
<path d="M62.6063 123.987L63.8724 124.145C65.4946 124.422 67.0376 125.174 68.6993 125.214C74.5945 123.473 80.8457 124.422 86.8991 124.422C86.9387 124.937 87.0178 126.005 87.0574 126.519C82.5074 126.678 77.9575 126.717 73.4075 126.598C71.0336 126.598 68.7784 125.016 66.4045 125.728C65.3759 125.807 64.1889 126.915 63.2789 125.965C63.002 125.253 62.8042 124.62 62.6063 123.987ZM60.9842 128.102C62.7646 128.102 64.545 128.141 66.365 128.102V129.724C64.9407 129.685 63.4767 129.605 62.0524 129.566C61.6963 129.091 61.3403 128.616 60.9842 128.102Z" fill="#DCC576"/>
<path d="M94.179 125.649C93.9021 124.027 95.9594 124.343 96.9486 124.106C99.2433 123.948 101.499 124.066 103.793 124.066C103.912 125.214 103.437 125.768 102.329 125.728C99.5994 125.807 96.8694 125.807 94.179 125.649ZM108.897 124.304C113.131 123.948 117.364 123.354 121.677 123.592C122.863 123.829 123.773 124.778 124.763 125.411C121.874 126.836 118.591 126.519 115.465 126.084C113.091 125.768 110.598 126.203 108.264 125.491C108.422 125.174 108.739 124.581 108.897 124.304ZM93.5064 127.627C97.7399 127.271 101.973 127.429 106.128 128.26C110.005 127.746 113.961 128.221 117.839 127.548C119.461 127.667 122.824 126.955 122.428 129.487C120.608 129.724 118.907 128.577 117.047 128.735C113.408 128.972 109.728 129.289 106.128 128.498C102.013 129.368 97.7794 128.972 93.6251 129.21C93.5856 128.814 93.546 128.023 93.5064 127.627Z" fill="#F5D776"/>
<path d="M90.7765 125.926C90.7765 125.847 90.816 125.728 90.816 125.649L90.7765 125.926Z" fill="#959D64"/>
</g>
<defs>
<clipPath id="clip0_1_32">
<rect width="240" height="207.636" fill="white" transform="translate(5 21)"/>
</clipPath>
</defs>
</svg>
