<svg width="250" height="250" viewBox="0 0 250 250" fill="none" xmlns="http://www.w3.org/2000/svg">
<rect width="250" height="250" rx="48" fill="white"/>
<g clip-path="url(#clip0_3_216)">
<path d="M204.15 129.05C204.159 127.688 203.456 126.421 202.295 125.709H202.275L202.202 125.668L141.857 89.9472C141.596 89.7711 141.326 89.6102 141.047 89.4653C138.717 88.2632 135.949 88.2632 133.619 89.4653C133.34 89.6103 133.07 89.7711 132.809 89.9472L72.4642 125.668L72.3913 125.709C70.547 126.856 69.9816 129.281 71.1285 131.125C71.4664 131.668 71.9319 132.121 72.4844 132.444L132.829 168.165C133.091 168.339 133.361 168.5 133.639 168.647C135.969 169.849 138.737 169.849 141.067 168.647C141.345 168.5 141.616 168.339 141.877 168.165L202.222 132.444C203.428 131.741 204.164 130.445 204.15 129.05Z" fill="#0A2767"/>
<path d="M79.499 105.2H119.1V141.5H79.499V105.2ZM196.05 68.3V51.695C196.145 47.5433 192.859 44.0995 188.707 44H85.9427C81.791 44.0995 78.5049 47.5433 78.6 51.695V68.3L139.35 84.4999L196.05 68.3Z" fill="#0364B8"/>
<path d="M78.6 68.2999H119.1V104.75H78.6V68.2999Z" fill="#0078D4"/>
<path d="M159.6 68.2999H119.1V104.75L159.6 141.2H196.05V104.75L159.6 68.2999Z" fill="#28A8EA"/>
<path d="M119.1 104.75H159.6V141.2H119.1V104.75Z" fill="#0078D4"/>
<path d="M119.1 141.2H159.6V177.65H119.1V141.2Z" fill="#0364B8"/>
<path d="M79.499 141.5H119.1V174.499H79.499V141.5Z" fill="#14447D"/>
<path d="M159.6 141.2H196.05V177.65H159.6V141.2Z" fill="#0078D4"/>
<path d="M202.295 132.221L202.218 132.262L141.873 166.201C141.61 166.363 141.342 166.516 141.063 166.654C140.038 167.142 138.925 167.418 137.791 167.464L134.494 165.536C134.215 165.397 133.945 165.241 133.684 165.071L72.529 130.168H72.5006L70.4999 129.05V197.754C70.5311 202.338 74.2712 206.029 78.855 206H195.924C195.993 206 196.054 205.967 196.127 205.967C197.095 205.906 198.049 205.706 198.962 205.376C199.356 205.209 199.736 205.011 200.1 204.785C200.371 204.631 200.837 204.295 200.837 204.295C202.912 202.76 204.14 200.335 204.15 197.754V129.05C204.148 130.364 203.44 131.576 202.295 132.221Z" fill="url(#paint0_linear_3_216)"/>
<path opacity="0.5" d="M200.91 128.779V132.991L137.811 176.435L72.4844 130.196C72.4844 130.174 72.4663 130.156 72.4439 130.156L66.45 126.551V123.514L68.9205 123.473L74.1449 126.47L74.2664 126.511L74.7118 126.794C74.7118 126.794 136.11 161.827 136.272 161.908L138.621 163.284C138.823 163.203 139.026 163.123 139.269 163.041C139.39 162.96 200.221 128.738 200.221 128.738L200.91 128.779Z" fill="#0A2767"/>
<path d="M202.295 132.221L202.218 132.266L141.873 166.205C141.61 166.367 141.343 166.52 141.063 166.658C138.719 167.803 135.979 167.803 133.635 166.658C133.358 166.521 133.087 166.369 132.825 166.205L72.4805 132.266L72.4076 132.221C71.2425 131.589 70.5121 130.375 70.5 129.05V197.754C70.529 202.337 74.2678 206.029 78.8508 206C78.8508 206 78.8509 206 78.8511 206H195.799C200.382 206.029 204.121 202.337 204.15 197.754C204.15 197.754 204.15 197.754 204.15 197.754V129.05C204.148 130.364 203.44 131.576 202.295 132.221Z" fill="#1490DF"/>
<path opacity="0.1" d="M142.752 165.702L141.849 166.209C141.587 166.375 141.317 166.528 141.039 166.666C140.044 167.155 138.962 167.441 137.855 167.509L160.815 194.66L200.865 204.311C201.963 203.482 202.836 202.392 203.405 201.14L142.752 165.702Z" fill="black"/>
<path opacity="0.05" d="M146.842 163.402L141.849 166.209C141.587 166.375 141.317 166.528 141.039 166.666C140.044 167.155 138.962 167.441 137.855 167.509L148.612 197.167L200.877 204.299C202.936 202.753 204.149 200.329 204.15 197.754V196.867L146.842 163.402Z" fill="black"/>
<path d="M78.9645 206H195.787C197.584 206.009 199.337 205.441 200.788 204.38L134.49 165.544C134.211 165.405 133.941 165.249 133.68 165.079L72.525 130.176H72.4966L70.5 129.05V197.519C70.4955 202.198 74.2851 205.995 78.9645 206V206Z" fill="#28A8EA"/>
<path opacity="0.1" d="M127.2 83.8236V170.21C127.193 173.239 125.351 175.961 122.542 177.095C121.672 177.469 120.735 177.662 119.788 177.662H70.4999V80.45H78.6V76.4H119.788C123.88 76.4155 127.191 79.7321 127.2 83.8236Z" fill="black"/>
<path opacity="0.2" d="M123.15 87.8737V174.26C123.16 175.238 122.953 176.207 122.542 177.095C121.418 179.867 118.73 181.686 115.738 181.7H70.4999V80.45H115.738C116.914 80.4383 118.072 80.7314 119.1 81.3006C121.583 82.5514 123.149 85.0938 123.15 87.8737Z" fill="black"/>
<path opacity="0.2" d="M123.15 87.8737V166.16C123.13 170.25 119.828 173.565 115.739 173.6H70.4999V80.45H115.738C116.914 80.4383 118.072 80.7314 119.1 81.3006C121.583 82.5514 123.149 85.0938 123.15 87.8737Z" fill="black"/>
<path opacity="0.2" d="M119.1 87.8736V166.16C119.096 170.256 115.784 173.58 111.688 173.6H70.4999V80.45H111.688C115.784 80.4521 119.102 83.7741 119.1 87.8696C119.1 87.8709 119.1 87.8722 119.1 87.8736Z" fill="black"/>
<path d="M37.4236 80.45H111.676C115.776 80.45 119.1 83.7737 119.1 87.8736V162.126C119.1 166.226 115.776 169.55 111.676 169.55H37.4236C33.3236 169.55 30 166.226 30 162.126V87.8736C30 83.7737 33.3237 80.45 37.4236 80.45Z" fill="url(#paint1_linear_3_216)"/>
<path d="M53.2024 111.586C55.0321 107.688 57.9854 104.426 61.6832 102.219C65.7782 99.8743 70.4408 98.7055 75.1575 98.841C79.5292 98.7462 83.8429 99.8544 87.6275 102.045C91.1858 104.167 94.0517 107.276 95.8773 110.995C97.8654 115.093 98.8562 119.603 98.769 124.158C98.8654 128.917 97.8459 133.633 95.7923 137.927C93.9232 141.78 90.9664 145 87.2873 147.19C83.3568 149.447 78.8829 150.584 74.3516 150.478C69.8866 150.586 65.4778 149.465 61.6062 147.238C58.0171 145.114 55.1152 142.001 53.247 138.272C51.2471 134.233 50.2445 129.773 50.323 125.267C50.2397 120.548 51.224 115.871 53.2024 111.586ZM62.242 133.578C63.2176 136.042 64.8719 138.18 67.0129 139.742C69.1937 141.266 71.8051 142.052 74.4649 141.986C77.2975 142.098 80.0895 141.284 82.4191 139.669C84.5331 138.112 86.1439 135.968 87.0523 133.505C88.0677 130.754 88.5688 127.839 88.5305 124.907C88.5619 121.946 88.0908 119.002 87.1373 116.199C86.2951 113.669 84.7362 111.437 82.6499 109.776C80.3788 108.084 77.5942 107.226 74.7646 107.346C72.0471 107.276 69.3773 108.068 67.1385 109.61C64.9612 111.179 63.2755 113.335 62.2785 115.827C60.0667 121.538 60.0552 127.867 62.246 133.586L62.242 133.578Z" fill="white"/>
<path d="M159.6 68.2999H196.05V104.75H159.6V68.2999Z" fill="#50D9FF"/>
</g>
<defs>
<linearGradient id="paint0_linear_3_216" x1="137.325" y1="129.05" x2="137.325" y2="206" gradientUnits="userSpaceOnUse">
<stop stop-color="#35B8F1"/>
<stop offset="1" stop-color="#28A8EA"/>
</linearGradient>
<linearGradient id="paint1_linear_3_216" x1="45.4785" y1="74.6493" x2="103.621" y2="175.351" gradientUnits="userSpaceOnUse">
<stop stop-color="#1784D9"/>
<stop offset="0.5" stop-color="#107AD5"/>
<stop offset="1" stop-color="#0A63C9"/>
</linearGradient>
<clipPath id="clip0_3_216">
<rect width="174.15" height="162" fill="white" transform="translate(30 44)"/>
</clipPath>
</defs>
</svg>
