<svg width="250" height="250" viewBox="0 0 250 250" fill="none" xmlns="http://www.w3.org/2000/svg">
<rect width="250" height="250" rx="48" fill="#0779FF"/>
<g clip-path="url(#clip0_4_28)">
<path d="M113.924 214.888C99.3849 214.019 85.1638 209.979 72.1292 203.014C64.6606 199.216 57.8691 194.045 52.062 187.735C47.4141 182.708 45.0901 179.422 44.6474 177.126C44.4085 175.947 44.6029 175.05 45.1906 174.564C45.9322 174.501 46.6739 174.438 47.4157 174.375C48.4212 174.788 49.8468 175.8 51.9144 177.522C64.1614 187.735 81.2038 195.137 100.164 198.422C123.746 202.489 147.89 200.509 170.621 192.643C174.679 191.178 177.261 190.03 181.429 187.853C184.159 186.389 185.007 186.033 185.893 185.993C186.962 185.874 186.999 185.914 187.59 186.587C188.438 187.576 188.401 188.883 187.479 190.387C186.63 191.772 185.118 193.395 182.868 195.335C171.322 205.309 152.546 212.474 132.405 214.572C128.79 214.968 117.096 215.126 113.924 214.888Z" fill="white"/>
<path d="M189.471 203.093C188.29 202.024 188.512 200.837 190.393 197.472C192.756 193.429 194.5 189.006 195.557 184.37C195.963 181.599 195.299 180.689 192.459 180.135C189.803 179.66 183.569 180.016 179.622 180.887C178.884 181.045 177.593 181.164 176.744 181.164C175.269 181.164 175.084 181.164 174.716 180.689C174.427 180.313 174.237 179.863 174.162 179.383C174.088 178.67 174.162 178.472 174.716 177.799C179.489 173.616 185.485 171.374 191.647 171.466C197.439 171.466 202.124 172.97 203.673 175.345C204.226 176.216 204.263 176.295 204.337 179.185C204.374 181.322 204.337 182.629 204.079 183.974C203.225 188.629 201.396 193.015 198.73 196.799C196.862 199.196 194.704 201.313 192.311 203.093C190.836 203.884 190.282 203.884 189.471 203.093Z" fill="white"/>
<path d="M122.015 90.177C121.725 90.0458 121.494 89.8131 121.363 89.5225C121.233 89.1735 121.189 81.8441 121.189 69.5411C121.189 53.0936 121.189 50.0832 121.45 49.7342C121.71 49.3852 122.015 49.3416 125.446 49.298C127.966 49.2544 129.356 49.298 129.704 49.4725C130.268 49.6906 130.355 49.9088 131.007 53.399L131.485 55.2313C131.572 55.2749 131.919 54.7514 132.31 54.0097C133.527 51.5666 135.525 49.7342 137.958 48.8617C138.87 48.5127 139.565 48.4255 141.346 48.4255C143.735 48.4255 144.691 48.6 146.689 49.6034C148.431 50.7001 149.89 52.195 150.947 53.9662C151.381 54.7078 151.729 55.275 151.816 55.275C151.859 55.275 152.207 54.8823 152.554 54.4024C154.197 51.8422 156.62 49.8835 159.461 48.8181C161.736 48.1926 164.137 48.1926 166.412 48.8181C170.409 50.2142 172.754 53.1808 174.231 58.7215C174.579 60.2485 174.622 60.6848 174.666 74.8637C174.753 87.5157 174.666 89.5662 174.449 89.9152C174.188 90.2642 173.927 90.3079 169.757 90.3515C165.5 90.3951 165.282 90.3951 164.805 90.0025L164.283 89.5662L164.196 76.3907C164.153 63.3897 164.153 63.1715 163.719 61.9063C162.85 59.2887 161.416 58.1544 159.027 58.1544C156.594 58.1544 154.856 59.4632 153.944 62.0372C153.293 63.8696 153.206 66.2254 153.206 78.0485C153.206 89.348 153.206 89.6098 152.771 90.0024C152.424 90.3515 152.163 90.3951 148.123 90.3951C143.779 90.3951 143.301 90.3079 142.91 89.6098C142.667 85.3972 142.594 81.1764 142.693 76.9578C142.693 64.7421 142.649 63.2588 141.998 61.2519C141.129 58.4598 137.654 57.2382 134.917 58.7651C133.136 59.7249 132.18 61.7318 131.876 65.2656C131.745 66.2691 131.659 72.1588 131.659 78.3539V89.6098L131.224 90.0024C130.79 90.3514 130.573 90.3951 126.619 90.3951C124.317 90.3951 122.275 90.2642 122.015 90.177Z" fill="white"/>
<path d="M37.0861 103.091C36.816 103.011 36.5648 102.878 36.3475 102.698C36 102.48 36 100.953 36 76.3035C36 61.95 36.0869 50.127 36.1303 49.9961C36.5213 49.4289 37.2164 49.2981 40.6049 49.2981C42.5597 49.2981 44.2539 49.3853 44.4277 49.4289C44.9056 49.6035 45.0793 50.127 45.6006 52.6574C45.8613 53.9662 46.1654 55.1005 46.2523 55.1878C46.3391 55.275 46.6432 54.8388 46.9473 54.228C47.6424 52.9192 49.6841 50.7378 51.0309 49.9961C53.2633 48.6578 55.887 48.1339 58.4594 48.5128C64.3675 49.429 68.451 54.4898 70.2755 63.0408C70.7099 65.2222 70.8403 72.4643 70.4493 75.2565C70.0054 79.6963 68.2847 83.9104 65.497 87.3849C63.0208 90.0026 60.7184 91.1805 57.5471 91.3114C55.2447 91.486 53.7243 91.2242 51.9866 90.3516C50.1701 89.3336 48.6328 87.8797 47.5121 86.1198C47.2806 85.7002 46.9877 85.3178 46.6432 84.9855C46.5564 84.9855 46.4695 88.7811 46.4695 93.4492C46.4695 98.161 46.3826 102.131 46.2957 102.393C45.9916 103.135 45.2096 103.265 41.1696 103.265C39.1278 103.265 37.2599 103.222 37.0861 103.135L37.0861 103.091ZM54.8971 82.0623C56.3307 81.626 57.6774 80.1427 58.4594 78.3103C59.3282 76.2162 59.6757 74.1657 59.806 70.8936C60.0232 65.2221 58.72 60.423 56.5479 58.547C55.8528 57.9363 54.0283 57.2382 53.2029 57.2382C48.9891 57.2382 46.2523 62.0809 46.2523 69.5848C46.2523 74.951 47.3383 78.7466 49.38 80.8407C50.8571 82.2804 52.8988 82.7603 54.9406 82.0623L54.8971 82.0623Z" fill="white"/>
<path d="M193.91 91.1805C186.979 89.765 181.549 84.3462 180.096 77.3941C177.62 67.5343 180.313 57.151 186.699 51.9593C192.587 47.0588 201.119 47.0772 206.986 52.0029C209.419 54.1843 210.853 56.1911 212.199 59.5068C213.285 62.2117 213.72 64.5676 213.85 68.3196C213.937 70.0647 213.894 71.6789 213.85 71.9407C213.546 73.1186 214.154 73.0314 201.773 73.0314C195.561 73.0314 190.435 73.1186 190.348 73.2059C190.131 73.5549 190.87 77.0451 191.434 78.5721C192.216 80.6225 193.693 82.1931 195.214 82.6294C198.472 83.5456 201.6 82.0623 202.642 79.052C203.381 77.0015 203.468 76.8706 204.293 76.7833C204.901 76.7397 209.332 77.6559 212.026 78.3103C213.155 78.6157 213.285 79.1828 212.547 81.0152C211.765 83.1093 210.722 84.8108 209.289 86.3377C206.301 89.6477 202.004 91.4539 197.56 91.2676C196.039 91.3113 194.388 91.2676 193.867 91.1804L193.91 91.1805ZM203.033 65.4402C203.033 63.477 201.817 59.8559 200.644 58.4598C199.703 57.4678 198.402 56.9011 197.038 56.8892C194.997 56.8892 193.433 57.849 192.26 59.8123C191.565 61.0775 190.739 63.5206 190.522 65.0476L190.392 66.0511H203.033L203.033 65.4402Z" fill="white"/>
<path d="M76.3139 90.0026L75.7926 89.5664V69.7594C75.7926 51.5231 75.7926 49.8653 76.0967 49.6471C76.5311 49.2981 83.308 49.1236 84.1334 49.4726C84.785 49.7344 85.0022 50.2143 85.4801 52.8756C85.6973 54.0535 85.9145 55.057 86.0448 55.1442C86.0883 55.2314 86.4792 54.7079 86.8268 54.0099C87.6956 52.3957 89.6505 50.3016 90.9972 49.6472C93.5342 48.4537 96.4037 48.1763 99.1208 48.8619C100.728 49.2981 101.38 49.8653 101.38 50.7815C101.38 51.4359 100.076 56.8894 99.5117 58.6781C99.0773 59.9869 98.8167 60.1178 96.9053 59.3761C95.4793 58.7287 93.9489 58.3444 92.3873 58.2418C89.4768 58.2418 87.6088 59.7688 86.7399 63.0408C86.3924 64.0443 86.349 65.6585 86.262 77.0016C86.432 81.3528 86.3159 85.7104 85.9145 90.0463C85.6973 90.2208 84.5243 90.308 81.2228 90.3517C76.9655 90.3953 76.7918 90.3516 76.3139 90.0026Z" fill="white"/>
<path d="M104.985 90.177C104.75 90.1062 104.549 89.9509 104.421 89.7408C104.334 89.5226 104.203 54.0098 104.29 50.3887C104.29 49.3852 104.898 49.2544 109.764 49.2544C114.586 49.2544 114.673 49.298 114.76 50.5632V70.3701C114.76 89.3481 114.76 89.6099 114.369 90.0025C114.021 90.3515 113.761 90.3952 109.677 90.3952C107.288 90.3952 105.159 90.3079 104.942 90.177L104.985 90.177Z" fill="white"/>
<path d="M107.766 46.2005C106.051 45.6567 104.636 44.4251 103.856 42.7976C103.235 41.0932 103.235 39.223 103.856 37.5186C104.421 36.2534 105.637 35.0318 106.897 34.4647C108.61 33.8451 110.484 33.8451 112.197 34.4647C113.587 35.1191 114.977 36.6461 115.455 38.1294C115.889 39.6127 115.759 41.7069 115.107 43.1466C114.499 44.4554 113.065 45.677 111.632 46.1133C110.589 46.4186 108.591 46.4623 107.766 46.2005Z" fill="white"/>
<path d="M107.736 156.644C102.822 155.771 98.6971 151.072 97.0296 144.501C95.8948 139.406 95.8351 134.148 96.8541 129.031C98.2144 123.084 101.242 118.717 105.411 116.888C110.381 114.472 116.475 116.084 119.408 120.589C119.934 121.337 120.461 121.92 120.549 121.836C120.68 121.795 120.768 118.468 120.768 113.394C120.768 105.202 120.768 105.036 121.163 104.661C121.558 104.287 121.734 104.245 126.121 104.329C127.737 104.219 129.36 104.317 130.948 104.62C131.387 105.036 131.475 108.861 131.387 132.067L131.299 155.106L130.86 155.521C130.509 155.937 130.378 155.937 126.824 155.937C125.491 155.976 124.157 155.934 122.83 155.812C122.304 155.605 121.953 154.814 121.514 152.444C121.396 151.667 121.205 150.902 120.944 150.157L120.286 151.238C119.408 152.818 117.082 154.939 115.239 155.813C114.45 156.187 113.309 156.561 112.738 156.644C111.466 156.894 109.052 156.894 107.736 156.644ZM116.336 147.828C119.54 146.372 121.207 141.548 120.856 134.936C120.549 128.989 118.662 125.496 115.371 124.623C114.624 124.366 113.811 124.337 113.045 124.54C109.842 125.205 108.087 127.908 107.429 133.065C107.03 136.29 107.238 139.557 108.043 142.713C108.789 145.374 110.106 147.121 111.948 147.953C113.045 148.452 115.152 148.369 116.336 147.828Z" fill="white"/>
<path d="M190.36 156.561C185.158 155.233 180.829 151.815 178.513 147.204C177.472 145.045 176.735 142.766 176.319 140.426C175.134 132.524 177.504 124.872 182.506 120.339C184.71 118.19 187.56 116.738 190.667 116.181C201.725 114.06 211.291 122.627 211.817 135.227C212.147 140.198 210.827 145.142 208.044 149.367C205.754 152.621 202.39 155.064 198.478 156.312C195.812 156.873 193.059 156.958 190.36 156.561ZM196.284 148.161C198.083 147.329 199.443 145.25 200.189 142.339C200.54 140.841 200.628 140.051 200.628 136.433C200.628 133.065 200.54 131.984 200.277 130.861C199.268 126.827 197.556 124.706 194.924 124.165C191.413 123.5 188.693 125.954 187.684 130.611C186.455 136.225 187.201 143.212 189.351 146.289C189.965 147.163 191.37 148.244 192.247 148.535C193.125 148.784 195.45 148.618 196.284 148.161Z" fill="white"/>
<path d="M151.308 156.561C149.566 156.287 147.896 155.694 146.394 154.815C141.392 151.837 138.059 146.893 137.311 141.341C136.872 138.887 136.872 134.312 137.311 131.9C138.129 126.413 141.285 121.483 146.042 118.26C148.697 116.743 151.719 115.898 154.818 115.807C156.486 115.807 159.206 116.306 160.786 116.888C165.053 118.678 168.398 121.998 170.088 126.12C171.405 129.073 171.931 131.817 171.975 135.685C171.975 138.305 171.975 138.637 171.624 139.012C171.273 139.428 171.185 139.428 159.733 139.428H148.193V140.051C148.193 141.174 148.719 143.42 149.377 144.834C150.123 146.539 151.045 147.62 152.361 148.244C153.765 148.951 156.003 148.951 157.539 148.327C158.767 147.828 160.171 146.414 160.61 145.291L161.181 143.753C161.4 143.087 161.532 143.004 162.146 142.962C163.024 142.879 170.044 144.335 170.702 144.709C171.361 145.125 171.185 145.957 170.088 148.161C169 150.35 167.393 152.271 165.393 153.775C162.322 155.937 159.864 156.686 155.52 156.769C153.546 156.811 152.186 156.769 151.308 156.603V156.561ZM160.917 132.524C161.093 132.399 161.093 132.108 160.83 130.736C160.172 127.451 158.811 125.247 156.881 124.415C154.028 123.167 150.738 124.831 149.333 128.241C148.719 129.904 148.193 132.275 148.456 132.524C148.719 132.774 160.479 132.774 160.917 132.524Z" fill="white"/>
<path d="M49.3332 155.563C48.9382 155.147 48.7627 154.648 47.578 150.448C45.9748 144.88 44.3366 139.321 42.6635 133.772L38.9338 121.046C38.4511 119.424 38.0562 117.969 38.0562 117.719C38.0562 116.888 38.5828 116.763 43.5411 116.763C47.7096 116.763 48.2361 116.805 48.6311 117.096C48.9821 117.387 49.2893 118.468 50.6056 124.041L53.3261 135.726C54.3354 139.885 55.5201 145.042 55.5201 145.291C55.5201 145.915 55.8272 145.291 56.0466 144.252L59.2937 130.32C61.9264 119.092 62.2775 117.511 62.6285 117.179C62.8917 116.929 63.5938 116.846 67.5868 116.805C72.589 116.805 73.1595 116.846 73.2911 117.636C73.3349 118.052 72.6768 120.423 69.693 130.528L65.4367 145C64.7786 147.371 64.252 149.076 62.7162 154.149C62.4968 154.856 62.1897 155.521 62.0142 155.688C61.7948 155.937 60.8733 155.979 55.6956 155.979C49.9913 155.979 49.6403 155.979 49.3331 155.605L49.3332 155.563Z" fill="white"/>
<path d="M79.9168 155.563L79.3903 155.147L79.4341 136.309C79.478 118.551 79.5219 117.47 79.8729 117.179C80.1801 116.888 80.6627 116.846 84.568 116.763C88.2977 116.763 89.0875 116.763 89.5702 117.012L90.1845 117.304V136.017C90.1845 149.491 90.0967 154.939 89.9651 155.272C89.8261 155.525 89.5907 155.718 89.3069 155.813C89.0875 155.896 86.9813 155.937 84.6557 155.937C80.7066 155.937 80.3995 155.937 79.9168 155.521L79.9168 155.563Z" fill="white"/>
<path d="M82.9884 113.769C81.2332 113.353 79.4781 111.814 78.9515 110.192C78.5127 109.069 78.5127 107.281 78.9515 106.034C79.2587 104.869 80.6628 103.33 81.8476 102.748C83.0323 102.166 86.0599 102.083 87.3324 102.582C88.7804 103.206 89.7019 103.996 90.404 105.243C90.8866 106.283 90.9744 106.574 90.9744 108.071C90.9744 110.067 90.5795 110.982 89.4386 112.147C88.2539 113.311 87.0253 113.81 85.1824 113.893C84.3048 113.893 83.3394 113.893 82.9884 113.769Z" fill="white"/>
</g>
<defs>
<clipPath id="clip0_4_28">
<rect width="177.9" height="181" fill="white" transform="translate(36 34)"/>
</clipPath>
</defs>
</svg>
