<svg id="SvgjsSvg1012" width="288" height="288" xmlns="http://www.w3.org/2000/svg" version="1.1" xmlns:xlink="http://www.w3.org/1999/xlink" xmlns:svgjs="http://svgjs.com/svgjs"><rect id="SvgjsRect1017" width="288" height="288" rx="20" ry="20" transform="matrix(0.7916,0,0,0.7916,30.009600000000006,30.009600000000006)" fill="#ffffff"></rect><defs id="SvgjsDefs1013"></defs><g id="SvgjsG1014" transform="matrix(0.4652,0,0,0.4652,77.01134382705689,77.01031408653259)"><svg xmlns="http://www.w3.org/2000/svg" viewBox="0 0 16 16" width="288" height="288"><path fill="#f44336" d="M11.736 13.34a7.221 7.221 0 0 0 3.375-6.133C15.111 3.228 11.927 0 8 0 4.072 0 .889 3.228.889 7.208c0 3.982 3.183 7.208 7.111 7.208.578 0 1.138-.071 1.676-.203.674 1.227 1.704 2.097 3.886 1.682v-1.223s-1.399-.352-1.826-1.332zm-.05-5.178c0 1.203-.384 2.296-1.006 3.102a4.49 4.49 0 0 0-3.56-1.429v1.417s1.055.042 1.776 1.282c-.271.08-.551.123-.842.123-2.006 0-3.631-2.013-3.631-4.496V6.305c0-2.484 1.625-4.497 3.631-4.497s3.633 2.013 3.633 4.497l-.001 1.857z" class="colorF44336 svgShape"></path></svg></g></svg>