<svg width="250" height="250" viewBox="0 0 250 250" fill="none" xmlns="http://www.w3.org/2000/svg">
<rect width="250" height="250" rx="48" fill="white"/>
<path d="M68.7638 149.835C68.7638 161.043 59.7047 170.102 48.4961 170.102C37.2874 170.102 28.2283 161.043 28.2283 149.835C28.2283 138.626 37.2874 129.567 48.4961 129.567H68.7638V149.835ZM78.8976 149.835C78.8976 138.626 87.9567 129.567 99.1654 129.567C110.374 129.567 119.433 138.626 119.433 149.835V200.504C119.433 211.713 110.374 220.772 99.1654 220.772C87.9567 220.772 78.8976 211.713 78.8976 200.504V149.835Z" fill="#E01E5A"/>
<path d="M99.1654 68.4567C87.9567 68.4567 78.8976 59.3976 78.8976 48.189C78.8976 36.9803 87.9567 27.9213 99.1654 27.9213C110.374 27.9213 119.433 36.9803 119.433 48.189V68.4567H99.1654ZM99.1654 78.7441C110.374 78.7441 119.433 87.8032 119.433 99.0118C119.433 110.22 110.374 119.28 99.1654 119.28H48.3425C37.1339 119.28 28.0748 110.22 28.0748 99.0118C28.0748 87.8032 37.1339 78.7441 48.3425 78.7441H99.1654Z" fill="#36C5F0"/>
<path d="M180.39 99.0118C180.39 87.8032 189.449 78.7441 200.657 78.7441C211.866 78.7441 220.925 87.8032 220.925 99.0118C220.925 110.22 211.866 119.28 200.657 119.28H180.39V99.0118ZM170.256 99.0118C170.256 110.22 161.197 119.28 149.988 119.28C138.78 119.28 129.72 110.22 129.72 99.0118V48.189C129.72 36.9803 138.78 27.9213 149.988 27.9213C161.197 27.9213 170.256 36.9803 170.256 48.189V99.0118Z" fill="#2EB67D"/>
<path d="M149.988 180.236C161.197 180.236 170.256 189.295 170.256 200.504C170.256 211.713 161.197 220.772 149.988 220.772C138.78 220.772 129.72 211.713 129.72 200.504V180.236H149.988ZM149.988 170.102C138.78 170.102 129.72 161.043 129.72 149.835C129.72 138.626 138.78 129.567 149.988 129.567H200.811C212.02 129.567 221.079 138.626 221.079 149.835C221.079 161.043 212.02 170.102 200.811 170.102H149.988Z" fill="#ECB22E"/>
</svg>
