<svg width="250" height="250" viewBox="0 0 250 250" fill="none" xmlns="http://www.w3.org/2000/svg">
<rect width="250" height="250" rx="48" fill="white"/>
<g clip-path="url(#clip0_4_58)">
<path d="M161.47 103.25H209.785C214.35 103.25 218.05 106.95 218.05 111.515V155.524C218.05 172.3 204.45 185.9 187.674 185.9H187.53C170.754 185.902 157.152 172.304 157.15 155.528C157.15 155.527 157.15 155.525 157.15 155.524V107.57C157.15 105.184 159.084 103.25 161.47 103.25Z" fill="#5059C9"/>
<path d="M194.125 94.5499C204.936 94.5499 213.7 85.7859 213.7 74.9749C213.7 64.1639 204.936 55.3999 194.125 55.3999C183.314 55.3999 174.55 64.1639 174.55 74.9749C174.55 85.7859 183.314 94.5499 194.125 94.5499Z" fill="#5059C9"/>
<path d="M133.225 94.5501C148.841 94.5501 161.5 81.8909 161.5 66.275C161.5 50.6592 148.841 38 133.225 38C117.609 38 104.95 50.6592 104.95 66.275C104.95 81.8909 117.609 94.5501 133.225 94.5501Z" fill="#7B83EB"/>
<path d="M170.927 103.25H91.1735C86.6633 103.362 83.0954 107.105 83.2 111.615V161.81C82.5702 188.876 103.984 211.338 131.05 212C158.116 211.338 179.53 188.876 178.9 161.81V111.615C179.005 107.105 175.437 103.362 170.927 103.25Z" fill="#7B83EB"/>
<path opacity="0.1" d="M135.4 103.25V173.59C135.378 176.815 133.424 179.713 130.441 180.941C129.491 181.343 128.471 181.55 127.44 181.55H87.028C86.4625 180.115 85.9405 178.679 85.5055 177.2C83.9828 172.209 83.2058 167.02 83.1999 161.801V111.602C83.0954 107.099 86.6574 103.362 91.1604 103.25H135.4Z" fill="black"/>
<path opacity="0.2" d="M131.05 103.25V177.939C131.05 178.971 130.843 179.991 130.441 180.941C129.213 183.924 126.315 185.878 123.09 185.9H89.0725C88.333 184.464 87.637 183.029 87.028 181.55C86.419 180.071 85.9405 178.679 85.5055 177.2C83.9828 172.209 83.2058 167.02 83.1999 161.801V111.602C83.0954 107.099 86.6574 103.362 91.1604 103.25H131.05Z" fill="black"/>
<path opacity="0.2" d="M131.05 103.25V169.24C131.017 173.622 127.472 177.167 123.09 177.2H85.5055C83.9828 172.209 83.2059 167.02 83.2 161.801V111.602C83.0954 107.099 86.6575 103.362 91.1605 103.25H131.05Z" fill="black"/>
<path opacity="0.2" d="M126.7 103.25V169.24C126.667 173.622 123.122 177.167 118.739 177.2H85.5055C83.9828 172.209 83.2059 167.02 83.2 161.801V111.602C83.0954 107.099 86.6575 103.362 91.1605 103.25H126.7Z" fill="black"/>
<path opacity="0.1" d="M135.4 80.7605V94.463C134.661 94.5064 133.965 94.55 133.225 94.55C132.485 94.55 131.79 94.5065 131.05 94.463C129.582 94.3655 128.125 94.1326 126.7 93.767C117.891 91.6809 110.614 85.5032 107.125 77.15C106.525 75.7473 106.059 74.2907 105.733 72.8H127.439C131.829 72.8167 135.383 76.3709 135.4 80.7605Z" fill="black"/>
<path opacity="0.2" d="M131.05 85.1103V94.4629C129.582 94.3654 128.125 94.1324 126.7 93.7669C117.891 91.6808 110.614 85.5031 107.125 77.1499H123.09C127.479 77.1665 131.033 80.7208 131.05 85.1103Z" fill="black"/>
<path opacity="0.2" d="M131.05 85.1103V94.4629C129.582 94.3654 128.125 94.1324 126.7 93.7669C117.891 91.6808 110.614 85.5031 107.125 77.1499H123.09C127.479 77.1665 131.033 80.7208 131.05 85.1103Z" fill="black"/>
<path opacity="0.2" d="M126.7 85.1104V93.7669C117.891 91.6808 110.614 85.5031 107.125 77.1499H118.74C123.129 77.1666 126.683 80.7209 126.7 85.1104Z" fill="black"/>
<path d="M38.9735 77.1499H118.726C123.13 77.1499 126.7 80.7198 126.7 85.1234V164.876C126.7 169.28 123.13 172.85 118.726 172.85H38.9735C34.5698 172.85 31 169.28 31 164.876V85.1234C31 80.7198 34.5699 77.1499 38.9735 77.1499Z" fill="url(#paint0_linear_4_58)"/>
<path d="M99.8345 107.504H83.8916V150.917H73.7345V107.504H57.8657V99.0825H99.8345V107.504Z" fill="white"/>
</g>
<defs>
<linearGradient id="paint0_linear_4_58" x1="47.625" y1="70.9195" x2="110.075" y2="179.08" gradientUnits="userSpaceOnUse">
<stop stop-color="#5A62C3"/>
<stop offset="0.5" stop-color="#4D55BD"/>
<stop offset="1" stop-color="#3940AB"/>
</linearGradient>
<clipPath id="clip0_4_58">
<rect width="187.05" height="174" fill="white" transform="translate(31 38)"/>
</clipPath>
</defs>
</svg>
