<svg id="SvgjsSvg1001" width="288" height="288" xmlns="http://www.w3.org/2000/svg" version="1.1" xmlns:xlink="http://www.w3.org/1999/xlink" xmlns:svgjs="http://svgjs.com/svgjs"><rect id="SvgjsRect1011" width="288" height="288" rx="20" ry="20" transform="matrix(0.7916,0,0,0.7916,30.009600000000006,30.009600000000006)" fill="#ffffff"></rect><defs id="SvgjsDefs1002"></defs><g id="SvgjsG1008" transform="matrix(0.4652,0,0,0.4652,76.95746172332764,76.8534839416504)"><svg xmlns="http://www.w3.org/2000/svg" fill="none" viewBox="0 0 163 60" width="288" height="288"><path fill="#000000" d="M41.366 31.4306L43.9066 30.1025V10.2302H41.9638L37.2313 16.428H36.6833L37.032 9.44322H57.5562L57.8551 16.428H57.3072L52.6245 10.2302H50.6318V30.0533L53.2222 31.3814V32.0701H41.366V31.4306ZM59.8478 30.5452V8.50863L57.8551 7.72161V7.3281L65.0287 6H65.8257V16.4772L65.9752 16.3297C67.7187 14.9032 69.8608 14.067 72.1524 14.067C75.2908 14.067 76.6856 15.8378 76.6856 19.0842V30.5452L78.3794 31.4306V32.0701H68.9641V31.4306L70.6579 30.5452V19.035C70.6579 17.2151 69.8608 16.5264 68.3663 16.5264C67.4696 16.5264 66.573 16.7724 65.8755 17.3134V30.5452L67.5195 31.4306V32.0701H58.1042V31.4798L59.8478 30.5452ZM83.5104 23.7572C83.7097 27.3971 85.3536 30.2009 89.2891 30.2009C91.1821 30.2009 92.5271 29.3155 93.7725 28.6761V29.4139C92.0788 31.4798 89.5382 32.6112 86.8481 32.6112C80.7705 32.6112 77.6819 29.2663 77.6819 23.5112C77.6819 17.8545 81.0694 14.3621 86.5492 14.3621C91.7301 14.3621 94.3703 16.9199 94.3703 23.6096V23.7572H83.5104ZM83.4108 22.921L88.7411 22.5766C88.7411 18.0513 87.9441 15.0507 86.3997 15.0507C84.706 15.0999 83.4108 18.5923 83.4108 22.921ZM7.98926 40.8749C7.98926 31.2831 14.4155 27.889 21.589 27.889C24.6278 27.889 27.5172 28.3809 29.1113 29.0204L29.2607 35.7101H28.5633L24.3787 29.2171C23.5319 28.8728 22.6352 28.7252 21.7385 28.7744C17.9525 28.7744 15.9598 33.103 16.0595 40.2354C16.1093 48.7451 17.6536 52.631 21.1407 52.631C21.8381 52.631 22.5854 52.5326 23.233 52.2867V43.1868L20.8418 41.9078V41.1208H32.0006V41.957L29.7091 43.2359V52.2375C27.019 53.1721 24.1795 53.664 21.2901 53.664C13.1701 53.6148 7.98926 49.8764 7.98926 40.8749ZM30.9545 36.3987V35.8576L38.4269 34.5295L39.2737 34.5787V49.1386C39.2737 50.9094 40.1206 51.4505 41.5653 51.4505C42.5118 51.4505 43.4085 51.057 44.0063 50.3191V37.2841L41.914 36.3987V35.8084L49.3864 34.5295L50.1336 34.5787V51.3029L52.1761 52.1391V52.6802L44.8531 53.5656L44.1059 53.5164V51.3029H43.9066C42.4122 52.7786 40.4195 53.5656 38.2774 53.6148C34.6907 53.6148 33.0467 51.4997 33.0467 48.3516V37.2841L30.9545 36.3987ZM77.931 34.5295L78.5288 34.5787V39.9895H78.6783C79.4753 36.0544 81.2189 34.5787 83.4108 34.5787C83.7097 34.5787 84.0584 34.6279 84.3573 34.7263V40.1862C83.8591 40.0879 83.3112 40.0387 82.813 40.0387C81.4181 39.9895 80.0233 40.2846 78.7281 40.8257V51.4997L80.4218 52.4343V53.2213H70.7077V52.4835L72.4512 51.5489V36.989L70.4088 36.3987V35.9068L77.931 34.5295ZM96.7117 34.9722V29.2663L94.6692 28.5777V28.135L102.241 26.7577L102.939 26.8561V51.3029L105.031 52.0407V52.6802L97.5585 53.664L96.9608 53.6148V51.598H96.8113C95.5161 52.9262 93.7227 53.7132 91.8297 53.664C87.7448 53.664 84.8056 50.6143 84.8056 44.3181C84.8056 37.6776 88.2429 34.4311 93.4736 34.4311C94.5696 34.382 95.6655 34.5787 96.7117 34.9722ZM96.7117 50.6143V36.0052C96.1637 35.5133 95.4165 35.3165 94.6692 35.3657C92.6268 35.4149 91.3814 38.4646 91.3814 43.8262C91.3814 48.6467 92.278 51.3521 94.9681 51.2537C95.6157 51.2537 96.2135 51.057 96.7117 50.6143ZM113.201 34.5295L113.848 34.5787V51.5489L115.542 52.4835V53.2213H105.828V52.4835L107.572 51.5489V37.2349L105.479 36.3987V35.8084L113.201 34.5295ZM113.898 29.955C113.848 31.7258 112.354 33.103 110.561 33.0539C109.365 33.103 108.269 32.5128 107.671 31.529C107.073 30.5452 107.073 29.3155 107.671 28.2825C108.269 27.2988 109.365 26.7085 110.561 26.7577C112.404 26.7085 113.898 28.135 113.898 29.955ZM135.718 51.5489V37.0873L133.675 36.3987V35.7101L141.148 34.3328L141.895 34.382V36.5463H142.094C143.887 35.0706 146.129 34.2344 148.471 34.2344C151.709 34.2344 153.153 35.7592 153.153 39.1533V51.5489L154.897 52.5326V53.2213H145.183V52.4835L146.926 51.5489V39.4484C146.926 37.5792 146.129 36.8414 144.585 36.8414C143.638 36.7922 142.742 37.0873 142.044 37.6284V51.4997L143.738 52.4343V53.2213H134.024V52.4835L135.718 51.5489ZM125.157 42.4489V40.0387C125.157 36.3987 124.36 35.2182 122.068 35.2182C121.819 35.2182 121.57 35.2674 121.271 35.2674L117.186 40.7273H116.638V35.7101C118.83 34.9722 121.122 34.5787 123.463 34.5295C128.445 34.5295 131.334 35.9068 131.334 39.9895V51.7948L133.127 52.2375V52.7294C131.981 53.3197 130.736 53.5656 129.441 53.5656C127 53.5656 125.804 52.7786 125.256 51.4505H125.107C124.061 52.8278 122.566 53.6148 120.275 53.6148C117.336 53.6148 115.293 51.7948 115.293 48.6467C115.293 45.597 117.236 43.9246 121.122 43.1868L125.157 42.4489ZM125.157 50.6143V43.3343L123.911 43.4327C121.968 43.5803 121.271 44.81 121.271 47.5646C121.271 50.5159 122.267 51.3029 123.612 51.3029C124.21 51.3029 124.758 51.1062 125.157 50.6143ZM62.0895 42.4489V40.0387C62.0895 36.3987 61.2924 35.2182 59.0009 35.2182C58.7518 35.2182 58.5027 35.2674 58.2038 35.2674L54.1189 40.7273H53.571V35.7101C55.7629 34.9722 58.0544 34.5787 60.3958 34.5295C65.3774 34.5295 68.2667 35.9068 68.2667 39.9895V51.7948L70.0601 52.2375V52.7294C68.9143 53.3197 67.6689 53.5656 66.3737 53.5656C63.9327 53.5656 62.7371 52.7786 62.1891 51.4505H62.0397C60.9936 52.8278 59.4991 53.6148 57.2075 53.6148C54.2684 53.6148 52.2259 51.7948 52.2259 48.6467C52.2259 45.597 54.1189 43.9246 58.0544 43.1868L62.0895 42.4489ZM62.0895 50.6143V43.3343L60.8441 43.4327C58.9013 43.5803 58.2038 44.81 58.2038 47.5646C58.2038 50.5159 59.2002 51.3029 60.5452 51.3029C61.0932 51.3029 61.691 51.1062 62.0895 50.6143Z" class="color000 svgShape"></path></svg></g></svg>