<svg width="250" height="250" viewBox="0 0 250 250" fill="none" xmlns="http://www.w3.org/2000/svg">
<rect width="250" height="250" rx="48" fill="black"/>
<path d="M168.165 118.353C167.381 117.978 166.585 117.616 165.778 117.27C164.374 91.3852 150.23 76.5662 126.481 76.4145C126.373 76.4139 126.266 76.4139 126.158 76.4139C111.953 76.4139 100.139 82.4773 92.8675 93.5109L105.929 102.471C111.361 94.229 119.886 92.4721 126.165 92.4721C126.237 92.4721 126.31 92.4721 126.382 92.4727C134.201 92.5226 140.102 94.7962 143.921 99.2299C146.701 102.458 148.56 106.918 149.48 112.548C142.547 111.37 135.049 111.007 127.033 111.467C104.454 112.768 89.9376 125.936 90.9125 144.235C91.4072 153.517 96.0314 161.502 103.933 166.719C110.613 171.128 119.217 173.285 128.159 172.797C139.968 172.149 149.232 167.644 155.694 159.406C160.603 153.149 163.707 145.042 165.078 134.826C170.706 138.222 174.877 142.692 177.18 148.065C181.097 157.198 181.325 172.206 169.079 184.442C158.35 195.161 145.452 199.798 125.961 199.941C104.339 199.781 87.9874 192.847 77.3559 179.332C67.4003 166.676 62.2552 148.396 62.0633 125C62.2552 101.603 67.4003 83.3235 77.3559 70.668C87.9874 57.1528 104.339 50.2189 125.96 50.0582C147.739 50.2201 164.376 57.1874 175.414 70.7678C180.827 77.4275 184.907 85.8025 187.598 95.5675L202.904 91.4838C199.643 79.4642 194.512 69.1068 187.529 60.517C173.378 43.1063 152.681 34.185 126.014 34H125.907C99.294 34.1843 78.829 43.1396 65.0806 60.6168C52.8464 76.1694 46.5356 97.8097 46.3236 124.936L46.3229 125L46.3236 125.064C46.5356 152.19 52.8464 173.831 65.0806 189.383C78.829 206.86 99.294 215.816 125.907 216H126.014C149.674 215.836 166.352 209.641 180.091 195.915C198.066 177.956 197.525 155.446 191.601 141.627C187.35 131.718 179.246 123.669 168.165 118.353ZM127.313 156.762C117.417 157.319 107.136 152.877 106.629 143.363C106.253 136.309 111.649 128.437 127.921 127.499C129.784 127.392 131.613 127.339 133.409 127.339C139.319 127.339 144.848 127.914 149.875 129.013C148 152.428 137.003 156.23 127.313 156.762Z" fill="white"/>
</svg>
