<svg width="250" height="250" viewBox="0 0 250 250" fill="none" xmlns="http://www.w3.org/2000/svg">
<rect width="250" height="250" rx="48" fill="url(#paint0_linear_4_53)"/>
<g clip-path="url(#clip0_4_53)">
<path fill-rule="evenodd" clip-rule="evenodd" d="M191.607 115.286C192.418 116.685 192.683 118.275 192.77 120.064L192.885 122.447V139.115L193.003 141.501C193.238 145.397 196.112 148.279 200.039 148.524L202.412 148.641V122.447L202.53 120.064C202.627 118.295 202.89 116.675 203.713 115.266C204.551 113.822 205.755 112.624 207.203 111.792C208.651 110.96 210.293 110.523 211.963 110.526C213.633 110.53 215.273 110.972 216.718 111.809C218.163 112.646 219.362 113.849 220.195 115.296C221.006 116.695 221.258 118.315 221.356 120.064L221.473 122.44V139.115L221.591 141.501C221.836 145.417 224.687 148.299 228.626 148.524L231 148.641V120.064C231 115.01 228.993 110.164 225.421 106.59C221.848 103.016 217.002 101.007 211.949 101.005C209.244 101.002 206.57 101.577 204.105 102.69C201.64 103.803 199.441 105.429 197.655 107.46C195.868 105.43 193.669 103.804 191.204 102.691C188.74 101.577 186.066 101.002 183.361 101.003C179.404 101.003 175.733 102.203 172.691 104.276C170.836 102.206 166.684 101.003 164.3 101.003V148.641L166.684 148.524C170.67 148.261 173.552 145.457 173.707 141.501L173.834 139.115V122.447L173.952 120.064C174.052 118.265 174.302 116.685 175.115 115.276C175.954 113.833 177.157 112.635 178.604 111.802C180.051 110.969 181.692 110.53 183.361 110.529C185.032 110.53 186.674 110.969 188.121 111.804C189.568 112.639 190.771 113.84 191.607 115.286ZM28.5268 148.526L30.9103 148.641H66.6388L66.5213 146.265C66.1986 142.349 63.4249 139.487 59.4956 139.232L57.1121 139.115H35.6775L64.2553 110.527L64.1377 108.153C63.9526 104.196 61.0613 101.338 57.1121 101.12L54.7285 101.013L19 101.003L19.1176 103.386C19.4302 107.265 22.244 110.187 26.1407 110.412L28.5268 110.529H49.9614L21.3836 139.117L21.5011 141.501C21.7362 145.427 24.57 148.271 28.5268 148.524V148.526ZM154.948 107.976C157.161 110.187 158.916 112.813 160.113 115.703C161.31 118.594 161.926 121.691 161.926 124.819C161.926 127.948 161.31 131.045 160.113 133.935C158.916 136.826 157.161 139.451 154.948 141.663C150.479 146.129 144.419 148.638 138.101 148.638C131.783 148.638 125.723 146.129 121.253 141.663C111.952 132.362 111.952 117.277 121.253 107.976C123.464 105.765 126.088 104.011 128.976 102.814C131.864 101.617 134.96 101 138.086 101C141.217 100.998 144.318 101.613 147.212 102.81C150.105 104.008 152.734 105.764 154.948 107.978V107.976ZM148.208 114.721C150.887 117.402 152.392 121.038 152.392 124.828C152.392 128.619 150.887 132.254 148.208 134.935C145.527 137.614 141.891 139.119 138.101 139.119C134.31 139.119 130.675 137.614 127.994 134.935C125.315 132.254 123.81 128.619 123.81 124.828C123.81 121.038 125.315 117.402 127.994 114.721C130.675 112.042 134.31 110.537 138.101 110.537C141.891 110.537 145.527 112.042 148.208 114.721ZM88.0935 101C91.22 101.001 94.3157 101.617 97.2038 102.815C100.092 104.012 102.716 105.767 104.926 107.978C114.23 117.277 114.23 132.364 104.926 141.663C100.457 146.129 94.3967 148.638 88.0785 148.638C81.7602 148.638 75.7004 146.129 71.2309 141.663C61.9292 132.362 61.9292 117.277 71.2309 107.976C73.4411 105.765 76.0652 104.011 78.9534 102.814C81.8415 101.617 84.9371 101 88.0634 101H88.0935ZM98.1855 114.716C100.865 117.398 102.371 121.033 102.371 124.824C102.371 128.615 100.865 132.251 98.1855 134.933C95.5042 137.612 91.8689 139.117 88.0785 139.117C84.288 139.117 80.6527 137.612 77.9714 134.933C75.2922 132.251 73.7872 128.616 73.7872 124.826C73.7872 121.035 75.2922 117.4 77.9714 114.719C80.6527 112.039 84.288 110.534 88.0785 110.534C91.8689 110.534 95.5042 112.039 98.1855 114.719V114.716Z" fill="white"/>
</g>
<defs>
<linearGradient id="paint0_linear_4_53" x1="-6.15418e-06" y1="250" x2="250" y2="14" gradientUnits="userSpaceOnUse">
<stop stop-color="#0046C7"/>
<stop offset="1" stop-color="#2683ED"/>
</linearGradient>
<clipPath id="clip0_4_53">
<rect width="212" height="47.6414" fill="white" transform="translate(19 101)"/>
</clipPath>
</defs>
</svg>
